<svg xml:space="preserve" width="771.213" height="392.16" xmlns="http://www.w3.org/2000/svg"><path d="m1111.01 1435.9-105.85 61.03 2.37 1.36 95.68-55.17 7.8-7.22M1001.22 1503.74v397.89l2.36-1.36v-395.16l-2.36-1.37M1007.52 1907.08l-2.36 1.36 65.71 37.89-1.24-3.44-62.11-35.81M1882.94 1402.34l-2.36 1.36v249.08l2.36 4.96v-255.4M1358.08 1095.18v2.72l518.56 298.99 2.37-1.37-520.93-300.34M1350.21 1095.18l-520.925 300.34 2.363 1.37 518.562-298.99v-2.72M825.348 1402.34v600.69l2.363-1.36V1403.7l-2.363-1.36M831.652 2008.48l-2.367 1.37 333.975 192.56-1.24-3.45-330.368-190.48M2058.82 1300.94l-2.36 1.36v719.39l2.36 4.95v-725.7M1358.08 892.379v2.723l694.44 400.378 2.36-1.36-696.8-401.741M1350.21 892.379 653.414 1294.12l2.363 1.36 694.433-400.378v-2.723M649.477 1300.94v803.49l2.363-1.36V1302.3l-2.363-1.36M655.781 2109.89l-2.363 1.36 602.242 347.24-1.24-3.44-598.639-345.16M2234.69 1199.54l-2.36 1.36v1003.57l2.36 1.37v-1006.3M1358.08 689.559v2.73l870.31 501.791 2.36-1.36-872.67-503.161M1350.21 689.559 477.539 1192.72l2.363 1.36 870.308-501.791v-2.73M473.605 1199.54v1006.3l2.364-1.37V1200.9l-2.364-1.36M479.906 2211.29l-2.363 1.36 870.507 501.91-1.24-3.44-866.904-499.83" style="fill:#abadac;fill-opacity:1;fill-rule:nonzero;stroke:none" transform="matrix(.13333 0 0 -.13333 0 392.16)"/><path d="m2228.39 2211.29-835.2 481.55-13.86 10.71 851.42-490.9-2.36-1.36" style="fill:#979999;fill-opacity:1;fill-rule:nonzero;stroke:none" transform="matrix(.13333 0 0 -.13333 0 392.16)"/><path d="m1358.08 2719.99-6.31 4.88-1.56-4.33v108.84h7.87v-109.39M2109.96 2133.92l1.6 3.35-4.94 3.82 121.77 70.2 3.94-2.27v-4.55l-122.37-70.55m124.73 71.92v3.86h-1.18l.59 1.02-3.35 1.93 98.5 56.8 3.93-6.82-98.49-56.79" style="fill:#929493;fill-opacity:1;fill-rule:nonzero;stroke:none" transform="matrix(.13333 0 0 -.13333 0 392.16)"/><path d="M2232.33 2204.47v4.55l.59-.34.59 1.02h1.18v-3.86l-2.36-1.37" style="fill:#7e8182;fill-opacity:1;fill-rule:nonzero;stroke:none" transform="matrix(.13333 0 0 -.13333 0 392.16)"/><path d="m2232.33 2209.02-3.94 2.27 2.36 1.36 3.35-1.93-.59-1.02h-1.18v-.68" style="fill:#797d7e;fill-opacity:1;fill-rule:nonzero;stroke:none" transform="matrix(.13333 0 0 -.13333 0 392.16)"/><path d="m2232.92 2208.68-.59.34v.68h1.18l-.59-1.02" style="fill:#787c7d;fill-opacity:1;fill-rule:nonzero;stroke:none" transform="matrix(.13333 0 0 -.13333 0 392.16)"/><path d="m2329.25 1135.93-98.5 56.79 3.35 1.92-.59 1.03h1.18v3.87l98.49-56.79-3.93-6.82m-100.86 58.15-173.51 100.04 3.35 1.93-.59 1.02h1.18v3.87l173.51-100.04v-4.55l-3.94-2.27m-175.87 101.4-173.51 100.04 3.34 1.93-.59 1.03h1.18v3.86l173.52-100.04v-4.54l-3.94-2.28m-175.88 101.41-94.25 54.34 2.8 1.46.15.32 3.07 1.76.1 2.02 92.07-53.09v-4.54l-3.94-2.27" style="fill:#929493;fill-opacity:1;fill-rule:nonzero;stroke:none" transform="matrix(.13333 0 0 -.13333 0 392.16)"/><path d="M1882.94 1398.48h-1.18l-.59 1.02-.59-.34v4.54l2.36-1.36v-3.86M1879.01 1395.52l-2.37 1.37 3.94 2.27v-.68h1.18l.59-1.03-3.34-1.93" style="fill:#7e8182;fill-opacity:1;fill-rule:nonzero;stroke:none" transform="matrix(.13333 0 0 -.13333 0 392.16)"/><path d="M1881.76 1398.48h-1.18v.68l.59.34.59-1.02" style="fill:#797d7e;fill-opacity:1;fill-rule:nonzero;stroke:none" transform="matrix(.13333 0 0 -.13333 0 392.16)"/><path d="M2058.82 1297.07h-1.18l-.59 1.03-.59-.34v4.54l2.36-1.36v-3.87M2054.88 1294.12l-2.36 1.36 3.94 2.28v-.69h1.18l.59-1.02-3.35-1.93" style="fill:#7e8182;fill-opacity:1;fill-rule:nonzero;stroke:none" transform="matrix(.13333 0 0 -.13333 0 392.16)"/><path d="M2057.64 1297.07h-1.18v.69l.59.34.59-1.03" style="fill:#797d7e;fill-opacity:1;fill-rule:nonzero;stroke:none" transform="matrix(.13333 0 0 -.13333 0 392.16)"/><path d="M2234.69 1195.67h-1.18l-.59 1.02-.59-.34v4.55l2.36-1.36v-3.87M2230.75 1192.72l-2.36 1.36 3.94 2.27v-.68h1.18l.59-1.03-3.35-1.92" style="fill:#7e8182;fill-opacity:1;fill-rule:nonzero;stroke:none" transform="matrix(.13333 0 0 -.13333 0 392.16)"/><path d="M2233.51 1195.67h-1.18v.68l.59.34.59-1.02" style="fill:#797d7e;fill-opacity:1;fill-rule:nonzero;stroke:none" transform="matrix(.13333 0 0 -.13333 0 392.16)"/><path d="M1358.08 575.988h-7.87v113.571l3.35-1.93.59 1.031.59-1.031 3.34 1.93V575.988m-3.93 114.032-3.94 2.269v200.09l3.35-1.93.59 1.02.59-1.02 3.34 1.93v-200.09l-3.93-2.269m0 202.812-3.94 2.27v200.078l3.35-1.93.59 1.02.59-1.02 3.34 1.93V895.102l-3.93-2.27m0 202.798-3.94 2.27v116.46l7.84-7.26.03.01V1097.9l-3.93-2.27" style="fill:#929493;fill-opacity:1;fill-rule:nonzero;stroke:none" transform="matrix(.13333 0 0 -.13333 0 392.16)"/><path d="m1354.74 1093.25-.59 1.02.59 1.02-.59.34 3.93 2.27v-2.72l-3.34-1.93M1353.56 1093.25l-3.35 1.93v2.72l3.94-2.27-.59-.34.59-1.02-.59-1.02" style="fill:#7e8182;fill-opacity:1;fill-rule:nonzero;stroke:none" transform="matrix(.13333 0 0 -.13333 0 392.16)"/><path d="m1354.15 1094.27-.59 1.02.59.34.59-.34-.59-1.02" style="fill:#797d7e;fill-opacity:1;fill-rule:nonzero;stroke:none" transform="matrix(.13333 0 0 -.13333 0 392.16)"/><path d="m1354.74 890.449-.59 1.02.59 1.019-.59.344 3.93 2.27v-2.723l-3.34-1.93M1353.56 890.449l-3.35 1.93v2.723l3.94-2.27-.59-.344.59-1.019-.59-1.02" style="fill:#7e8182;fill-opacity:1;fill-rule:nonzero;stroke:none" transform="matrix(.13333 0 0 -.13333 0 392.16)"/><path d="m1354.15 891.469-.59 1.019.59.344.59-.344-.59-1.019" style="fill:#797d7e;fill-opacity:1;fill-rule:nonzero;stroke:none" transform="matrix(.13333 0 0 -.13333 0 392.16)"/><path d="m1354.74 687.629-.59 1.031.59 1.02-.59.34 3.93 2.269v-2.73l-3.34-1.93M1353.56 687.629l-3.35 1.93v2.73l3.94-2.269-.59-.34.59-1.02-.59-1.031" style="fill:#7e8182;fill-opacity:1;fill-rule:nonzero;stroke:none" transform="matrix(.13333 0 0 -.13333 0 392.16)"/><path d="m1354.15 688.66-.59 1.02.59.34.59-.34-.59-1.02" style="fill:#797d7e;fill-opacity:1;fill-rule:nonzero;stroke:none" transform="matrix(.13333 0 0 -.13333 0 392.16)"/><path d="m379.047 1135.93-3.934 6.82 98.492 56.79v-3.87h1.18l-.59-1.03 3.344-1.92-98.492-56.79m100.855 58.15-3.933 2.27v4.55l173.508 100.04v-3.87h1.183l-.59-1.02 3.344-1.93-173.512-100.04m175.875 101.4-3.937 2.28v4.54l173.508 100.04v-3.86h1.179l-.589-1.03 3.347-1.93-173.508-100.04m175.871 101.41-3.937 2.27v4.54l173.509 100.04v-3.86h1.18l-.59-1.02 3.35-1.93-173.512-100.04m175.882 101.4-3.95 2.27v4.55l24.94 14.37-.69-6.54 1.96-1.81-22.26-12.84" style="fill:#929493;fill-opacity:1;fill-rule:nonzero;stroke:none" transform="matrix(.13333 0 0 -.13333 0 392.16)"/><path d="m1005.16 1496.93-3.35 1.93.59 1.02h1.18v.68l3.95-2.27-2.37-1.36" style="fill:#7e8182;fill-opacity:1;fill-rule:nonzero;stroke:none" transform="matrix(.13333 0 0 -.13333 0 392.16)"/><path d="M1002.4 1499.88h-1.18v3.86l2.36 1.37v-4.55l-.59.34-.59-1.02" style="fill:#7e8182;fill-opacity:1;fill-rule:nonzero;stroke:none" transform="matrix(.13333 0 0 -.13333 0 392.16)"/><path d="M1003.58 1499.88h-1.18l.59 1.02.59-.34v-.68" style="fill:#797d7e;fill-opacity:1;fill-rule:nonzero;stroke:none" transform="matrix(.13333 0 0 -.13333 0 392.16)"/><path d="m829.285 1395.52-3.347 1.93.589 1.03h1.184v.68l3.937-2.27-2.363-1.37" style="fill:#7e8182;fill-opacity:1;fill-rule:nonzero;stroke:none" transform="matrix(.13333 0 0 -.13333 0 392.16)"/><path d="M826.527 1398.48h-1.179v3.86l2.363 1.36v-4.54l-.594.34-.59-1.02" style="fill:#7e8182;fill-opacity:1;fill-rule:nonzero;stroke:none" transform="matrix(.13333 0 0 -.13333 0 392.16)"/><path d="M827.711 1398.48h-1.184l.59 1.02.594-.34v-.68" style="fill:#797d7e;fill-opacity:1;fill-rule:nonzero;stroke:none" transform="matrix(.13333 0 0 -.13333 0 392.16)"/><path d="m653.414 1294.12-3.344 1.93.59 1.02h1.18v.69l3.937-2.28-2.363-1.36" style="fill:#7e8182;fill-opacity:1;fill-rule:nonzero;stroke:none" transform="matrix(.13333 0 0 -.13333 0 392.16)"/><path d="M650.66 1297.07h-1.183v3.87l2.363 1.36v-4.54l-.59.34-.59-1.03" style="fill:#7e8182;fill-opacity:1;fill-rule:nonzero;stroke:none" transform="matrix(.13333 0 0 -.13333 0 392.16)"/><path d="M651.84 1297.07h-1.18l.59 1.03.59-.34v-.69" style="fill:#797d7e;fill-opacity:1;fill-rule:nonzero;stroke:none" transform="matrix(.13333 0 0 -.13333 0 392.16)"/><path d="m477.539 1192.72-3.344 1.92.59 1.03h1.184v.68l3.933-2.27-2.363-1.36" style="fill:#7e8182;fill-opacity:1;fill-rule:nonzero;stroke:none" transform="matrix(.13333 0 0 -.13333 0 392.16)"/><path d="M474.785 1195.67h-1.18v3.87l2.364 1.36v-4.55l-.594.34-.59-1.02" style="fill:#7e8182;fill-opacity:1;fill-rule:nonzero;stroke:none" transform="matrix(.13333 0 0 -.13333 0 392.16)"/><path d="M475.969 1195.67h-1.184l.59 1.02.594-.34v-.68" style="fill:#797d7e;fill-opacity:1;fill-rule:nonzero;stroke:none" transform="matrix(.13333 0 0 -.13333 0 392.16)"/><path d="m1046.29 1875.64-42.71 24.63v4.54l3.94 2.27 40.72-23.47-1.96-5.44.01-2.53m-45.07 25.99-173.509 100.04v4.54l3.941 2.27 173.508-100.04-3.35-1.92.59-1.03h-1.18v-3.86m-175.872 101.4L651.84 2103.07v4.54l3.941 2.28 173.504-100.04-3.347-1.93.589-1.03h-1.179v-3.86m-175.871 101.4-173.508 100.04v4.55l3.937 2.27 173.512-100.04-3.348-1.93.59-1.03h-1.183v-3.86m-175.872 101.41-98.492 56.79 3.934 6.82 98.496-56.8-3.348-1.93.59-1.02h-1.18v-3.86" style="fill:#929493;fill-opacity:1;fill-rule:nonzero;stroke:none" transform="matrix(.13333 0 0 -.13333 0 392.16)"/><path d="m1003.58 1900.27-2.36 1.36v3.86h1.18l.59-1.02.59.34v-4.54M1003.58 1904.81v.68h-1.18l-.59 1.03 3.35 1.92 2.36-1.36-3.94-2.27" style="fill:#7e8182;fill-opacity:1;fill-rule:nonzero;stroke:none" transform="matrix(.13333 0 0 -.13333 0 392.16)"/><path d="m1002.99 1904.47-.59 1.02h1.18v-.68l-.59-.34" style="fill:#797d7e;fill-opacity:1;fill-rule:nonzero;stroke:none" transform="matrix(.13333 0 0 -.13333 0 392.16)"/><path d="m827.711 2001.67-2.363 1.36v3.86h1.179l.59-1.02.594.34v-4.54M827.711 2006.21v.68h-1.184l-.589 1.03 3.347 1.93 2.367-1.37-3.941-2.27" style="fill:#7e8182;fill-opacity:1;fill-rule:nonzero;stroke:none" transform="matrix(.13333 0 0 -.13333 0 392.16)"/><path d="m827.117 2005.87-.59 1.02h1.184v-.68l-.594-.34" style="fill:#797d7e;fill-opacity:1;fill-rule:nonzero;stroke:none" transform="matrix(.13333 0 0 -.13333 0 392.16)"/><path d="m651.84 2103.07-2.363 1.36v3.86h1.183l.59-1.02.59.34v-4.54" style="fill:#7e8182;fill-opacity:1;fill-rule:nonzero;stroke:none" transform="matrix(.13333 0 0 -.13333 0 392.16)"/><path d="M651.84 2107.61v.68h-1.18l-.59 1.03 3.348 1.93 2.363-1.36-3.941-2.28" style="fill:#7e8182;fill-opacity:1;fill-rule:nonzero;stroke:none" transform="matrix(.13333 0 0 -.13333 0 392.16)"/><path d="m651.25 2107.27-.59 1.02h1.18v-.68l-.59-.34" style="fill:#797d7e;fill-opacity:1;fill-rule:nonzero;stroke:none" transform="matrix(.13333 0 0 -.13333 0 392.16)"/><path d="m475.969 2204.47-2.364 1.37v3.86h1.18l.59-1.02.594.34v-4.55" style="fill:#7e8182;fill-opacity:1;fill-rule:nonzero;stroke:none" transform="matrix(.13333 0 0 -.13333 0 392.16)"/><path d="M475.969 2209.02v.68h-1.184l-.59 1.02 3.348 1.93 2.363-1.36-3.937-2.27" style="fill:#7e8182;fill-opacity:1;fill-rule:nonzero;stroke:none" transform="matrix(.13333 0 0 -.13333 0 392.16)"/><path d="m475.375 2208.68-.59 1.02h1.184v-.68l-.594-.34" style="fill:#797d7e;fill-opacity:1;fill-rule:nonzero;stroke:none" transform="matrix(.13333 0 0 -.13333 0 392.16)"/><path d="m1359.45 1219.43-1.37 1.27v3.34l60.32 37.11 146.02 76.25-204.97-117.97m-21.79 20.18L1150 1413.42l32.75-18.89 142.74-140.16 12.17-14.76m-161.63 161.53-33.83 19.5-103.34 95.71 12.49 7.21 124.68-122.42" style="fill:#94dbce;fill-opacity:1;fill-rule:nonzero;stroke:none" transform="matrix(.13333 0 0 -.13333 0 392.16)"/><path d="m1182.75 1394.53-32.75 18.89-7.8 7.22 33.83-19.5 6.72-6.61" style="fill:#69bdac;fill-opacity:1;fill-rule:nonzero;stroke:none" transform="matrix(.13333 0 0 -.13333 0 392.16)"/><path d="m1039.22 1525.65 8.35 79.08.36-74.06-8.71-5.02" style="fill:#94dbce;fill-opacity:1;fill-rule:nonzero;stroke:none" transform="matrix(.13333 0 0 -.13333 0 392.16)"/><path d="m1358.08 1220.7-2.16 2 2.16 1.34v-3.34M1038.86 1516.35l-.56.52.92 8.78 8.71 5.02.01-3.76 3.41-3.35-12.49-7.21" style="fill:#5eaea0;fill-opacity:1;fill-rule:nonzero;stroke:none" transform="matrix(.13333 0 0 -.13333 0 392.16)"/><path d="m1358.75 2300.99-2.99-4.01 450.21-335.89-27.26-500.36-419.26-241.3-321.15 297.44 36.99 350.29 287.62 431.05-4.16 2.78-2.99-4.01 2.99 4.01-4.16 2.78-288.99-433.1-37.77-357.73 330.22-305.84 430.36 247.67 27.83 511.13-458.72 342.25-2.93-4.38 4.16-2.78" style="fill:#45c0a6;fill-opacity:1;fill-rule:nonzero;stroke:none" transform="matrix(.13333 0 0 -.13333 0 392.16)"/><path d="m1790.12 1486.28 6.43 117.98 84.03 286.99v-215.23l-90.46-189.74m92.82 194.7v218.35l36.54 124.76 136.98 78.98v-58.14l-173.52-363.95m175.88 368.9v54.55l35.86 20.68-35.86-75.23" style="fill:#a2acab;fill-opacity:1;fill-rule:nonzero;stroke:none" transform="matrix(.13333 0 0 -.13333 0 392.16)"/><path d="M1880.58 1676.02v215.23l2.36 8.08v-218.35l-2.36-4.96M2056.46 2044.93v58.14l2.36 1.36v-54.55l-2.36-4.95" style="fill:#747f80;fill-opacity:1;fill-rule:nonzero;stroke:none" transform="matrix(.13333 0 0 -.13333 0 392.16)"/><path d="m1056.71 1786.48-.39 83.38 8.67-5-8.28-78.38m10.3 86.3-9.97 5.75 26.01 72.1 58.36 33.64-74.4-111.49m17.28 81.29 91.16 252.64 140.25 80.86-101.93-194.84-69.41-104.03-60.07-34.63m92.4 256.08 91.15 252.64 82.37 47.49v-156.74l-.49-.95-31.97-61.11-141.06-81.33m92.39 256.08 81.13 224.84V2513l-81.13-46.77" style="fill:#a2acab;fill-opacity:1;fill-rule:nonzero;stroke:none" transform="matrix(.13333 0 0 -.13333 0 392.16)"/><path d="m1083.05 1950.63 1.24 3.44 60.07 34.63-2.95-4.43-58.36-33.64M1175.45 2206.71l1.24 3.44 141.06 81.33-2.05-3.91-140.25-80.86M1267.84 2462.79l1.24 3.44 81.13 46.77v-2.72l-82.37-47.49" style="fill:#747f80;fill-opacity:1;fill-rule:nonzero;stroke:none" transform="matrix(.13333 0 0 -.13333 0 392.16)"/><path d="m1915.88 2031.11-557.8 322.66v156.51l694.43-400.39-136.63-78.78m139 80.14L1358.08 2513v194.35l739.18-571.67-42.38-24.43" style="fill:#a2acab;fill-opacity:1;fill-rule:nonzero;stroke:none" transform="matrix(.13333 0 0 -.13333 0 392.16)"/><path d="m2052.51 2109.89-694.43 400.39v2.72l696.8-401.75-2.37-1.36" style="fill:#6a7476;fill-opacity:1;fill-rule:nonzero;stroke:none" transform="matrix(.13333 0 0 -.13333 0 392.16)"/><path d="M1350.21 2353.54v156.74l3.94 2.27 3.93-2.27v-156.51l-5.95 3.44-1.92-3.67m0 159.46v178.07l6.31 17.48 1.56-1.2V2513l-3.34 1.93-.59-1.02-.59 1.02-3.35-1.93" style="fill:#667072;fill-opacity:1;fill-rule:nonzero;stroke:none" transform="matrix(.13333 0 0 -.13333 0 392.16)"/><path d="M1350.21 2510.28v2.72l3.35 1.93.59-1.02-.59-1.02.59-.34-3.94-2.27" style="fill:#5c6668;fill-opacity:1;fill-rule:nonzero;stroke:none" transform="matrix(.13333 0 0 -.13333 0 392.16)"/><path d="m1358.08 2510.28-3.93 2.27.59.34-.59 1.02.59 1.02 3.34-1.93v-2.72" style="fill:#596365;fill-opacity:1;fill-rule:nonzero;stroke:none" transform="matrix(.13333 0 0 -.13333 0 392.16)"/><path d="m1354.15 2512.55-.59.34.59 1.02.59-1.02-.59-.34" style="fill:#596265;fill-opacity:1;fill-rule:nonzero;stroke:none" transform="matrix(.13333 0 0 -.13333 0 392.16)"/><path d="m1919.48 2024.09 1.23 4.22-4.83 2.8 136.63 78.78 3.95-2.28v-4.54l-136.98-78.98m139.34 80.34v3.86h-1.18l.59 1.03-3.35 1.93 42.38 24.43 1.8-1.39-4.38-9.18-35.86-20.68" style="fill:#667072;fill-opacity:1;fill-rule:nonzero;stroke:none" transform="matrix(.13333 0 0 -.13333 0 392.16)"/><path d="M2056.46 2103.07v4.54l.59-.34.59 1.02h1.18v-3.86l-2.36-1.36" style="fill:#5c6668;fill-opacity:1;fill-rule:nonzero;stroke:none" transform="matrix(.13333 0 0 -.13333 0 392.16)"/><path d="m2056.46 2107.61-3.95 2.28 2.37 1.36 3.35-1.93-.59-1.03h-1.18v-.68" style="fill:#596365;fill-opacity:1;fill-rule:nonzero;stroke:none" transform="matrix(.13333 0 0 -.13333 0 392.16)"/><path d="m2057.05 2107.27-.59.34v.68h1.18l-.59-1.02" style="fill:#596265;fill-opacity:1;fill-rule:nonzero;stroke:none" transform="matrix(.13333 0 0 -.13333 0 392.16)"/><path d="m1064.99 1864.86-8.67 5-.04 6.59.76 2.08 9.97-5.75-1.41-2.11-.61-5.81" style="fill:#667072;fill-opacity:1;fill-rule:nonzero;stroke:none" transform="matrix(.13333 0 0 -.13333 0 392.16)"/><path d="m1264.65 1328.13-47.33 46.47 17.15-9.89 30.18-36.58m-34.47 41.78-19.58 11.29-150.25 147.55 15.84 9.13 41.1-31.1 112.89-136.87" style="fill:#6aa39c;fill-opacity:1;fill-rule:nonzero;stroke:none" transform="matrix(.13333 0 0 -.13333 0 392.16)"/><path d="m1234.47 1364.71-17.15 9.89-6.72 6.6 19.58-11.29 4.29-5.2" style="fill:#528782;fill-opacity:1;fill-rule:nonzero;stroke:none" transform="matrix(.13333 0 0 -.13333 0 392.16)"/><path d="m1539.58 1335.71 214.38 131.91 18.16-10.47-232.54-121.44m239.17 126.71-20.31 11.71 25.8 88.11-5.43-99.68-.06-.14m-720.85 74-.76 158.94 17.33 164.04 14.38-8.3-3.34-188.71-12.22-117.1-15.39-8.87m33.47 322.32-15.68 9.04 85.26 127.76 2.84 1.64-72.42-138.44m72.53 141.23 6.24 9.35-4.31-8.24-1.93-1.11" style="fill:#6aa39c;fill-opacity:1;fill-rule:nonzero;stroke:none" transform="matrix(.13333 0 0 -.13333 0 392.16)"/><path d="m1160.95 1995.54 2.95 4.43 1.93 1.11-2.04-3.9-2.84-1.64" style="fill:#528782;fill-opacity:1;fill-rule:nonzero;stroke:none" transform="matrix(.13333 0 0 -.13333 0 392.16)"/><path d="m1772.12 1457.15-18.16 10.47 3.14 1.94 1.34 4.57 20.31-11.71-1.1-2.3-1.6-.92-3.93-2.05M1060.35 1528.75l-2.43 2.38-.02 5.29 15.39 8.87-.51-4.83 3.41-2.58-15.84-9.13M1088.85 1851.1l-14.38 8.3.82 7.76.4.62 15.68-9.04-2.47-4.72-.05-2.92" style="fill:#4b7e7a;fill-opacity:1;fill-rule:nonzero;stroke:none" transform="matrix(.13333 0 0 -.13333 0 392.16)"/><path d="m1776.05 1459.2 1.6.92-.05-.11-1.55-.81m2.76 3.36 5.43 99.68 12.31 42.02-6.43-117.98-11.31-23.72m-721.67 232.8-.43 91.12 8.28 78.38.61 5.81 1.41 2.11 74.4 111.49 2.95 4.43 69.41 104.03-43.63-83.41-6.24-9.35-2.95-4.43-85.26-127.76-.4-.62-.82-7.76-17.33-164.04" style="fill:#358e83;fill-opacity:1;fill-rule:nonzero;stroke:none" transform="matrix(.13333 0 0 -.13333 0 392.16)"/><path d="m1354.15 2716.71-3.06-3.95 747.97-578.47-321.46-674.28-422.55-220.66-297.13 291.78-1.64 345.32 302.57 838.57-4.7 1.69-3.06-3.95 3.06 3.95-4.71 1.7-303.16-840.24 1.66-351.26 305.3-299.79 431.95 225.57 326.37 684.58-759.79 587.6-2.33-6.46 4.71-1.7" style="fill:#2d3c40;fill-opacity:1;fill-rule:nonzero;stroke:none" transform="matrix(.13333 0 0 -.13333 0 392.16)"/><path d="m1798.93 1647.97 17.24 316.56 64.41 37.14v-74.83l-81.65-278.87m84.01 286.94v68.12l24 13.84-24-81.96" style="fill:#c77f88;fill-opacity:1;fill-rule:nonzero;stroke:none" transform="matrix(.13333 0 0 -.13333 0 392.16)"/><path d="M1880.58 1926.84v74.83l2.36 1.36v-68.12l-2.36-8.07" style="fill:#a8666f;fill-opacity:1;fill-rule:nonzero;stroke:none" transform="matrix(.13333 0 0 -.13333 0 392.16)"/><path d="m1810.38 1970.28-450.79 336.32 517.05-298.12-66.26-38.2m68.63 39.57-520.93 300.35v32.02l547.79-316.88-26.86-15.49" style="fill:#c77f88;fill-opacity:1;fill-rule:nonzero;stroke:none" transform="matrix(.13333 0 0 -.13333 0 392.16)"/><path d="m1876.64 2008.48-517.05 298.12-1.51 1.13v2.47l520.93-300.35-2.37-1.37" style="fill:#a36069;fill-opacity:1;fill-rule:nonzero;stroke:none" transform="matrix(.13333 0 0 -.13333 0 392.16)"/><path d="m1266.02 2171.03 65.84 125.86 18.35 10.58v-10.27l-84.19-126.17m67.89 129.77 16.3 31.16v-21.76l-16.3-9.4" style="fill:#c77f88;fill-opacity:1;fill-rule:nonzero;stroke:none" transform="matrix(.13333 0 0 -.13333 0 392.16)"/><path d="m1331.86 2296.89 2.05 3.91 16.3 9.4v-2.73l-18.35-10.58" style="fill:#a8666f;fill-opacity:1;fill-rule:nonzero;stroke:none" transform="matrix(.13333 0 0 -.13333 0 392.16)"/><path d="M1350.21 2297.2v10.27l3.94 2.27 3.2-1.85-2.76-4.12-4.38-6.57m0 13v21.76l5.95 11.37 1.92-1.11v-32.02l-3.34 1.93-.59-1.03-.59 1.03-3.35-1.93" style="fill:#a05e66;fill-opacity:1;fill-rule:nonzero;stroke:none" transform="matrix(.13333 0 0 -.13333 0 392.16)"/><path d="M1350.21 2307.47v2.73l3.35 1.93.59-1.03-.59-1.02.59-.34-3.94-2.27" style="fill:#995861;fill-opacity:1;fill-rule:nonzero;stroke:none" transform="matrix(.13333 0 0 -.13333 0 392.16)"/><path d="m1358.08 2307.73-.56.42-.17-.26-3.2 1.85.59.34-.59 1.02.59 1.03 3.34-1.93v-2.47" style="fill:#97585f;fill-opacity:1;fill-rule:nonzero;stroke:none" transform="matrix(.13333 0 0 -.13333 0 392.16)"/><path d="m1354.15 2309.74-.59.34.59 1.02.59-1.02-.59-.34" style="fill:#96575f;fill-opacity:1;fill-rule:nonzero;stroke:none" transform="matrix(.13333 0 0 -.13333 0 392.16)"/><path d="m1816.17 1964.53.07 1.37-5.86 4.38 66.26 38.2 3.94-2.27v-4.54l-64.41-37.14m66.77 38.5v3.86h-1.18l.59 1.03-3.34 1.93 26.86 15.49 3.04-1.75-1.97-6.72-24-13.84" style="fill:#a05e66;fill-opacity:1;fill-rule:nonzero;stroke:none" transform="matrix(.13333 0 0 -.13333 0 392.16)"/><path d="M1880.58 2001.67v4.54l.59-.34.59 1.02h1.18v-3.86l-2.36-1.36" style="fill:#995861;fill-opacity:1;fill-rule:nonzero;stroke:none" transform="matrix(.13333 0 0 -.13333 0 392.16)"/><path d="m1880.58 2006.21-3.94 2.27 2.37 1.37 3.34-1.93-.59-1.03h-1.18v-.68" style="fill:#97585f;fill-opacity:1;fill-rule:nonzero;stroke:none" transform="matrix(.13333 0 0 -.13333 0 392.16)"/><path d="m1881.17 2005.87-.59.34v.68h1.18l-.59-1.02" style="fill:#96575f;fill-opacity:1;fill-rule:nonzero;stroke:none" transform="matrix(.13333 0 0 -.13333 0 392.16)"/><path d="M1358.08 1240.93v57.05l191.88 110.63 178.29 73.83 15.86-9.14-330.66-203.45-55.37-28.92m0 59.78v28.44l175.1 72.52-175.1-100.96" style="fill:#9a7779;fill-opacity:1;fill-rule:nonzero;stroke:none" transform="matrix(.13333 0 0 -.13333 0 392.16)"/><path d="M1358.08 1297.98v2.73l175.1 100.96 16.78 6.94-191.88-110.63" style="fill:#8b686a;fill-opacity:1;fill-rule:nonzero;stroke:none" transform="matrix(.13333 0 0 -.13333 0 392.16)"/><path d="m1350.21 1244.11-17.34 17.03-73.68 89.32 91.02-52.48v-53.87m0 56.6-95.31 54.95-103.12 125.01 198.43-150.17v-29.79" style="fill:#9a7779;fill-opacity:1;fill-rule:nonzero;stroke:none" transform="matrix(.13333 0 0 -.13333 0 392.16)"/><path d="m1350.21 1297.98-91.02 52.48-4.29 5.2 95.31-54.95v-2.73" style="fill:#8b686a;fill-opacity:1;fill-rule:nonzero;stroke:none" transform="matrix(.13333 0 0 -.13333 0 392.16)"/><path d="m1749.53 1479.26-17.34 10-25.12 191.08v221.29l98.76 56.94-19.21-352.61-37.09-126.7m-44.82 219.05-24.67 187.73 24.67 14.23v-201.96" style="fill:#9a7779;fill-opacity:1;fill-rule:nonzero;stroke:none" transform="matrix(.13333 0 0 -.13333 0 392.16)"/><path d="m1707.07 1680.34-2.36 17.97v201.96l2.36 1.36v-221.29" style="fill:#8b686a;fill-opacity:1;fill-rule:nonzero;stroke:none" transform="matrix(.13333 0 0 -.13333 0 392.16)"/><path d="m1097.55 1777.8 1.2 67.6 5.52-3.19-6.72-64.41m10.19 71.5-7.7 4.44 79.91 152.76 170.26 98.16v-30.46l-242.47-224.9m74.25 161.1 40.4 77.22 127.82 191.56v-171.79l-168.22-96.99" style="fill:#9a7779;fill-opacity:1;fill-rule:nonzero;stroke:none" transform="matrix(.13333 0 0 -.13333 0 392.16)"/><path d="m1179.95 2006.5 2.04 3.9 168.22 96.99v-2.73l-170.26-98.16" style="fill:#8b686a;fill-opacity:1;fill-rule:nonzero;stroke:none" transform="matrix(.13333 0 0 -.13333 0 392.16)"/><path d="m1675.54 1892.54-317.46 183.03v29.09l342.69-197.58-25.23-14.54m27.6 15.91-345.06 198.94v183.59l1.9 2.85 440.97-328.99-97.81-56.39" style="fill:#9a7779;fill-opacity:1;fill-rule:nonzero;stroke:none" transform="matrix(.13333 0 0 -.13333 0 392.16)"/><path d="m1700.77 1907.08-342.69 197.58v2.73l345.06-198.94-2.37-1.37" style="fill:#876566;fill-opacity:1;fill-rule:nonzero;stroke:none" transform="matrix(.13333 0 0 -.13333 0 392.16)"/><path d="M1350.21 2074.2v30.46l3.94 2.27 3.93-2.27v-29.09l-3.93 2.27-3.94-3.64m0 33.19v171.79l7.87 11.8v-183.59l-3.34 1.93-.59-1.02-.59 1.02-3.35-1.93" style="fill:#866365;fill-opacity:1;fill-rule:nonzero;stroke:none" transform="matrix(.13333 0 0 -.13333 0 392.16)"/><path d="M1350.21 2104.66v2.73l3.35 1.93.59-1.02-.59-1.03.59-.34-3.94-2.27" style="fill:#816062;fill-opacity:1;fill-rule:nonzero;stroke:none" transform="matrix(.13333 0 0 -.13333 0 392.16)"/><path d="m1358.08 2104.66-3.93 2.27.59.34-.59 1.03.59 1.02 3.34-1.93v-2.73" style="fill:#815e61;fill-opacity:1;fill-rule:nonzero;stroke:none" transform="matrix(.13333 0 0 -.13333 0 392.16)"/><path d="m1354.15 2106.93-.59.34.59 1.03.59-1.03-.59-.34" style="fill:#815e61;fill-opacity:1;fill-rule:nonzero;stroke:none" transform="matrix(.13333 0 0 -.13333 0 392.16)"/><path d="m1680.04 1886.04-.56 4.23-3.94 2.27 25.23 14.54 3.94-2.27v-4.54l-24.67-14.23m27.03 15.59v3.86h-1.18l.59 1.03-3.34 1.93 97.81 56.39 5.02-3.75-.14-2.52-98.76-56.94" style="fill:#866365;fill-opacity:1;fill-rule:nonzero;stroke:none" transform="matrix(.13333 0 0 -.13333 0 392.16)"/><path d="M1704.71 1900.27v4.54l.59-.34.59 1.02h1.18v-3.86l-2.36-1.36" style="fill:#816062;fill-opacity:1;fill-rule:nonzero;stroke:none" transform="matrix(.13333 0 0 -.13333 0 392.16)"/><path d="m1704.71 1904.81-3.94 2.27 2.37 1.37 3.34-1.93-.59-1.03h-1.18v-.68" style="fill:#815e61;fill-opacity:1;fill-rule:nonzero;stroke:none" transform="matrix(.13333 0 0 -.13333 0 392.16)"/><path d="m1705.3 1904.47-.59.34v.68h1.18l-.59-1.02" style="fill:#815e61;fill-opacity:1;fill-rule:nonzero;stroke:none" transform="matrix(.13333 0 0 -.13333 0 392.16)"/><path d="m1744.11 1473.3-15.86 9.14 4.59 1.9-.65 4.92 17.34-10-.94-3.2-4.48-2.76M1355.05 1239.35l-4.84 4.76v53.87l3.35-1.93.59 1.02.59-1.02 3.34 1.93v-57.05l-3.03-1.58m-.9 59.09-3.94 2.27v29.79l3.94-2.98 3.93 1.63v-28.44l-3.93-2.27" style="fill:#866365;fill-opacity:1;fill-rule:nonzero;stroke:none" transform="matrix(.13333 0 0 -.13333 0 392.16)"/><path d="m1354.74 1296.05-.59 1.02.59 1.03-.59.34 3.93 2.27v-2.73l-3.34-1.93M1353.56 1296.05l-3.35 1.93v2.73l3.94-2.27-.59-.34.59-1.03-.59-1.02" style="fill:#816062;fill-opacity:1;fill-rule:nonzero;stroke:none" transform="matrix(.13333 0 0 -.13333 0 392.16)"/><path d="m1354.15 1297.07-.59 1.03.59.34.59-.34-.59-1.03" style="fill:#815e61;fill-opacity:1;fill-rule:nonzero;stroke:none" transform="matrix(.13333 0 0 -.13333 0 392.16)"/><path d="m1104.27 1842.21-5.52 3.19.11 6.08 1.18 2.26 7.7-4.44-3.02-2.8-.45-4.29" style="fill:#866365;fill-opacity:1;fill-rule:nonzero;stroke:none" transform="matrix(.13333 0 0 -.13333 0 392.16)"/><path d="m1786.62 1605.96 19.21 352.61.14 2.52-5.02 3.75-440.97 328.99-1.9-2.85-7.87-11.8-127.82-191.56 43.63 83.41 84.19 126.17 4.38 6.57 2.76 4.12.17.26.56-.42 1.51-1.13 450.79-336.32 5.86-4.38-.07-1.37-17.24-316.56-12.31-42.01" style="fill:#636f69;fill-opacity:1;fill-rule:nonzero;stroke:none" transform="matrix(.13333 0 0 -.13333 0 392.16)"/><path d="m1355.23 1234.02-22.36 27.12 17.34-17.03 4.84-4.76 3.03 1.58 55.37 28.92-58.22-35.83" style="fill:#784047;fill-opacity:1;fill-rule:nonzero;stroke:none" transform="matrix(.13333 0 0 -.13333 0 392.16)"/><path d="m1354.15 2350.27-2.51-4.33 557.27-322.35-160.32-547.53-393.36-242.04-261.69 317.26 5.32 300.2 259.72 496.48-4.43 2.31-2.51-4.33 2.51 4.33-4.43 2.32-260.82-498.57-5.42-306.25 269.58-326.83 404.04 248.62 163.61 558.75-568.58 328.9-2.41-4.62 4.43-2.32" style="fill:#f14c5d;fill-opacity:1;fill-rule:nonzero;stroke:none" transform="matrix(.13333 0 0 -.13333 0 392.16)"/><path d="m1117.29 1506.78-41.1 31.1 10.47 6.04 30.63-37.14m-44 38.51 12.22 117.1-1.97-111.18-10.25-5.92" style="fill:#94b25b;fill-opacity:1;fill-rule:nonzero;stroke:none" transform="matrix(.13333 0 0 -.13333 0 392.16)"/><path d="m1076.19 1537.88-3.41 2.58.51 4.83 10.25 5.92-.06-3.44 3.18-3.85-10.47-6.04" style="fill:#7f9d4c;fill-opacity:1;fill-rule:nonzero;stroke:none" transform="matrix(.13333 0 0 -.13333 0 392.16)"/><path d="M1358.08 1329.15v171.64l169.18 97.54 173.51-100.04-167.59-96.62-175.1-72.52m191.88 79.46 153.17 88.32 25.12-14.49-178.29-73.83m-191.88 94.9v192.36l166.82-96.18-166.82-96.18" style="fill:#b99848;fill-opacity:1;fill-rule:nonzero;stroke:none" transform="matrix(.13333 0 0 -.13333 0 392.16)"/><path d="M1358.08 1500.79v2.72l166.82 96.18 2.36-1.36-169.18-97.54M1533.18 1401.67l167.59 96.62 2.36-1.36-153.17-88.32-16.78-6.94" style="fill:#b08e42;fill-opacity:1;fill-rule:nonzero;stroke:none" transform="matrix(.13333 0 0 -.13333 0 392.16)"/><path d="m1350.21 1330.5-198.43 150.17-56.34 68.31 85.59 49.35 169.18-97.54V1330.5m0 173.01-166.81 96.18 166.81 96.18v-192.36" style="fill:#b99848;fill-opacity:1;fill-rule:nonzero;stroke:none" transform="matrix(.13333 0 0 -.13333 0 392.16)"/><path d="m1350.21 1500.79-169.18 97.54 2.37 1.36 166.81-96.18v-2.72" style="fill:#b08e42;fill-opacity:1;fill-rule:nonzero;stroke:none" transform="matrix(.13333 0 0 -.13333 0 392.16)"/><path d="m1732.19 1489.26-25.12 14.48v176.6l25.12-191.08m-27.48 15.84-173.51 100.05v195.07l148.84 85.82 24.67-187.73V1505.1m-175.87 101.41-166.81 96.17 166.81 96.18v-192.35" style="fill:#b99848;fill-opacity:1;fill-rule:nonzero;stroke:none" transform="matrix(.13333 0 0 -.13333 0 392.16)"/><path d="m1531.2 1605.15-2.36 1.36v192.35l2.36 1.36v-195.07M1707.07 1503.74l-2.36 1.36v193.21l2.36-17.97v-176.6" style="fill:#b08e42;fill-opacity:1;fill-rule:nonzero;stroke:none" transform="matrix(.13333 0 0 -.13333 0 392.16)"/><path d="m1093.64 1557.03 3.91 220.77 6.72 64.41 72.82-41.99v-195.07l-83.45-48.12m85.82 49.48v192.35l166.81-96.18-166.81-96.17" style="fill:#b99848;fill-opacity:1;fill-rule:nonzero;stroke:none" transform="matrix(.13333 0 0 -.13333 0 392.16)"/><path d="M1177.09 1605.15v195.07l2.37-1.36v-192.35l-2.37-1.36" style="fill:#b08e42;fill-opacity:1;fill-rule:nonzero;stroke:none" transform="matrix(.13333 0 0 -.13333 0 392.16)"/><path d="M1358.08 1709.5v192.36l166.82-96.18-166.82-96.18m169.18 97.54-169.18 97.55v170.98l317.46-183.03-148.28-85.5" style="fill:#b99848;fill-opacity:1;fill-rule:nonzero;stroke:none" transform="matrix(.13333 0 0 -.13333 0 392.16)"/><path d="m1524.9 1805.68-166.82 96.18v2.73l169.18-97.55-2.36-1.36" style="fill:#ad8c40;fill-opacity:1;fill-rule:nonzero;stroke:none" transform="matrix(.13333 0 0 -.13333 0 392.16)"/><path d="m1350.21 1709.5-166.82 96.18 166.82 96.18V1709.5m-169.18 97.54-73.29 42.26 242.47 224.9v-169.61l-169.18-97.55" style="fill:#b99848;fill-opacity:1;fill-rule:nonzero;stroke:none" transform="matrix(.13333 0 0 -.13333 0 392.16)"/><path d="m1183.39 1805.68-2.36 1.36 169.18 97.55v-2.73l-166.82-96.18" style="fill:#b08e42;fill-opacity:1;fill-rule:nonzero;stroke:none" transform="matrix(.13333 0 0 -.13333 0 392.16)"/><path d="m1354.15 1707.23-3.94 2.27v192.36l3.94 2.27 3.93-2.27V1709.5l-3.93-2.27m-3.94 197.36v169.61l3.94 3.64 3.93-2.27v-170.98l-3.34 1.93-.59-1.03-.59 1.03-3.35-1.93" style="fill:#ac8a40;fill-opacity:1;fill-rule:nonzero;stroke:none" transform="matrix(.13333 0 0 -.13333 0 392.16)"/><path d="M1350.21 1901.86v2.73l3.35 1.93.59-1.03-.59-1.02.59-.34-3.94-2.27" style="fill:#aa8a3e;fill-opacity:1;fill-rule:nonzero;stroke:none" transform="matrix(.13333 0 0 -.13333 0 392.16)"/><path d="m1358.08 1901.86-3.93 2.27.59.34-.59 1.02.59 1.03 3.34-1.93v-2.73" style="fill:#a9883d;fill-opacity:1;fill-rule:nonzero;stroke:none" transform="matrix(.13333 0 0 -.13333 0 392.16)"/><path d="m1354.15 1904.13-.59.34.59 1.02.59-1.02-.59-.34" style="fill:#a9883d;fill-opacity:1;fill-rule:nonzero;stroke:none" transform="matrix(.13333 0 0 -.13333 0 392.16)"/><path d="m1362.03 1702.68-5.92 3.41-1.96 1.14 3.93 2.27 166.82 96.18 3.94-2.27v-4.55l-166.81-96.18m169.17 97.54v3.87h-1.18l.59 1.02-3.35 1.93 148.28 85.5 3.94-2.27.56-4.23-148.84-85.82" style="fill:#ac8a40;fill-opacity:1;fill-rule:nonzero;stroke:none" transform="matrix(.13333 0 0 -.13333 0 392.16)"/><path d="M1528.84 1798.86v4.55l.59-.34.59 1.02h1.18v-3.87l-2.36-1.36" style="fill:#aa8a3e;fill-opacity:1;fill-rule:nonzero;stroke:none" transform="matrix(.13333 0 0 -.13333 0 392.16)"/><path d="m1528.84 1803.41-3.94 2.27 2.36 1.36 3.35-1.93-.59-1.02h-1.18v-.68" style="fill:#a9883d;fill-opacity:1;fill-rule:nonzero;stroke:none" transform="matrix(.13333 0 0 -.13333 0 392.16)"/><path d="m1529.43 1803.07-.59.34v.68h1.18l-.59-1.02" style="fill:#a9883d;fill-opacity:1;fill-rule:nonzero;stroke:none" transform="matrix(.13333 0 0 -.13333 0 392.16)"/><path d="m1728.25 1482.44-25.12 14.49 3.35 1.93-.59 1.02h1.18v3.86l25.12-14.48.65-4.92-4.59-1.9m-27.48 15.85-173.51 100.04 3.35 1.93-.59 1.02h1.18v3.87l173.51-100.05v-4.54l-3.94-2.27m-175.87 101.4-166.82 96.18v6.81h-3.93l1.96 3.41 5.92-3.41 166.81-96.17v-4.55l-3.94-2.27" style="fill:#ac8a40;fill-opacity:1;fill-rule:nonzero;stroke:none" transform="matrix(.13333 0 0 -.13333 0 392.16)"/><path d="M1531.2 1601.28h-1.18l-.59 1.03-.59-.35v4.55l2.36-1.36v-3.87M1527.26 1598.33l-2.36 1.36 3.94 2.27v-.68h1.18l.59-1.02-3.35-1.93" style="fill:#aa8a3e;fill-opacity:1;fill-rule:nonzero;stroke:none" transform="matrix(.13333 0 0 -.13333 0 392.16)"/><path d="M1530.02 1601.28h-1.18v.68l.59.35.59-1.03" style="fill:#a9883d;fill-opacity:1;fill-rule:nonzero;stroke:none" transform="matrix(.13333 0 0 -.13333 0 392.16)"/><path d="M1707.07 1499.88h-1.18l-.59 1.02-.59-.34v4.54l2.36-1.36v-3.86M1703.13 1496.93l-2.36 1.36 3.94 2.27v-.68h1.18l.59-1.02-3.35-1.93" style="fill:#aa8a3e;fill-opacity:1;fill-rule:nonzero;stroke:none" transform="matrix(.13333 0 0 -.13333 0 392.16)"/><path d="M1705.89 1499.88h-1.18v.68l.59.34.59-1.02" style="fill:#a9883d;fill-opacity:1;fill-rule:nonzero;stroke:none" transform="matrix(.13333 0 0 -.13333 0 392.16)"/><path d="m1354.15 1327.52-3.94 2.98v170.29l3.35-1.93.59 1.02.59-1.02 3.34 1.93v-171.64l-3.93-1.63m0 173.72-3.94 2.27v192.36l5.9 3.4-1.96 3.41h3.93V1503.51l-3.93-2.27" style="fill:#ac8a40;fill-opacity:1;fill-rule:nonzero;stroke:none" transform="matrix(.13333 0 0 -.13333 0 392.16)"/><path d="m1354.74 1498.86-.59 1.02.59 1.02-.59.34 3.93 2.27v-2.72l-3.34-1.93M1353.56 1498.86l-3.35 1.93v2.72l3.94-2.27-.59-.34.59-1.02-.59-1.02" style="fill:#aa8a3e;fill-opacity:1;fill-rule:nonzero;stroke:none" transform="matrix(.13333 0 0 -.13333 0 392.16)"/><path d="m1354.15 1499.88-.59 1.02.59.34.59-.34-.59-1.02" style="fill:#a9883d;fill-opacity:1;fill-rule:nonzero;stroke:none" transform="matrix(.13333 0 0 -.13333 0 392.16)"/><path d="m1095.44 1548.98-1.9 2.3.1 5.75 83.45 48.12v-3.87h1.19l-.59-1.02 3.34-1.93-85.59-49.35m87.96 50.71-3.94 2.27v4.55l166.81 96.17 5.91-3.41 1.97 3.41 1.96-3.41-5.9-3.4-166.81-96.18" style="fill:#ac8a40;fill-opacity:1;fill-rule:nonzero;stroke:none" transform="matrix(.13333 0 0 -.13333 0 392.16)"/><path d="m1181.03 1598.33-3.34 1.93.59 1.02h1.18v.68l3.94-2.27-2.37-1.36" style="fill:#aa8a3e;fill-opacity:1;fill-rule:nonzero;stroke:none" transform="matrix(.13333 0 0 -.13333 0 392.16)"/><path d="M1178.28 1601.28h-1.19v3.87l2.37 1.36v-4.55l-.59.35-.59-1.03" style="fill:#aa8a3e;fill-opacity:1;fill-rule:nonzero;stroke:none" transform="matrix(.13333 0 0 -.13333 0 392.16)"/><path d="M1179.46 1601.28h-1.18l.59 1.03.59-.35v-.68" style="fill:#a9883d;fill-opacity:1;fill-rule:nonzero;stroke:none" transform="matrix(.13333 0 0 -.13333 0 392.16)"/><path d="m1352.18 1699.27-5.91 3.41-166.81 96.18v4.55l3.93 2.27 166.82-96.18 3.94-2.27 1.96-1.14-1.96-3.41-1.97-3.41m-175.09 100.95-72.82 41.99.45 4.29 3.02 2.8 73.29-42.26-3.34-1.93.59-1.02h-1.19v-3.87" style="fill:#ac8a40;fill-opacity:1;fill-rule:nonzero;stroke:none" transform="matrix(.13333 0 0 -.13333 0 392.16)"/><path d="m1179.46 1798.86-2.37 1.36v3.87h1.19l.59-1.02.59.34v-4.55M1179.46 1803.41v.68h-1.18l-.59 1.02 3.34 1.93 2.36-1.36-3.93-2.27" style="fill:#aa8a3e;fill-opacity:1;fill-rule:nonzero;stroke:none" transform="matrix(.13333 0 0 -.13333 0 392.16)"/><path d="m1178.87 1803.07-.59 1.02h1.18v-.68l-.59-.34" style="fill:#a9883d;fill-opacity:1;fill-rule:nonzero;stroke:none" transform="matrix(.13333 0 0 -.13333 0 392.16)"/><path d="m1151.78 1480.67-34.49 26.11-30.63 37.14-3.18 3.85.06 3.44 1.97 111.18 12.04 115.41-3.91-220.77-.1-5.75 1.9-2.3 56.34-68.31" style="fill:#f57939;fill-opacity:1;fill-rule:nonzero;stroke:none" transform="matrix(.13333 0 0 -.13333 0 392.16)"/><path d="m1354.15 2077.84-2.5-4.32 323.2-186.35 52.53-399.67-372.5-154.26-276.83 209.51 31.45 301.36 248.05 230.07-3.4 3.66-2.5-4.32 2.5 4.32-3.4 3.67-250.81-232.62-32.42-310.71 285.89-216.37 384.88 159.38-54.17 412.18-330.67 190.65-2.7-2.51 3.4-3.67" style="fill:#eac41a;fill-opacity:1;fill-rule:nonzero;stroke:none" transform="matrix(.13333 0 0 -.13333 0 392.16)"/><path d="M1377.78 2300.99c0-3.13-.6-6.14-1.8-9.03-1.19-2.89-2.9-5.45-5.12-7.66a23.51 23.51 0 0 0-7.67-5.12c-2.89-1.2-5.91-1.79-9.04-1.79-3.14 0-6.15.59-9.05 1.79-2.89 1.2-5.45 2.91-7.66 5.12a23.34 23.34 0 0 0-5.13 7.66c-1.2 2.89-1.8 5.9-1.8 9.03 0 3.13.6 6.14 1.8 9.03 1.2 2.89 2.91 5.44 5.13 7.66a23.44 23.44 0 0 0 7.66 5.11c2.9 1.2 5.91 1.8 9.05 1.8 3.13 0 6.15-.6 9.04-1.8 2.9-1.2 5.45-2.9 7.67-5.11 2.22-2.22 3.93-4.77 5.12-7.66 1.2-2.89 1.8-5.9 1.8-9.03M1830.14 1963.5c0-3.13-.6-6.14-1.81-9.04-1.19-2.89-2.9-5.44-5.12-7.65a23.469 23.469 0 0 0-7.66-5.12c-2.9-1.19-5.92-1.79-9.05-1.79-3.13 0-6.15.6-9.04 1.79a23.51 23.51 0 0 0-7.67 5.12 23.117 23.117 0 0 0-5.12 7.65c-1.2 2.9-1.8 5.91-1.8 9.04 0 3.13.6 6.14 1.8 9.03 1.19 2.89 2.9 5.45 5.12 7.66s4.77 3.92 7.67 5.11c2.89 1.2 5.91 1.8 9.04 1.8 3.13 0 6.15-.6 9.05-1.8 2.89-1.19 5.45-2.9 7.66-5.11 2.22-2.21 3.93-4.77 5.12-7.66a23.15 23.15 0 0 0 1.81-9.03M1802.59 1457.75c0-3.13-.6-6.14-1.8-9.03-1.2-2.89-2.9-5.45-5.12-7.66a23.326 23.326 0 0 0-7.67-5.11c-2.89-1.2-5.91-1.8-9.04-1.8-3.13 0-6.15.6-9.05 1.8-2.89 1.19-5.45 2.9-7.66 5.11a23.34 23.34 0 0 0-5.13 7.66c-1.2 2.89-1.8 5.9-1.8 9.03 0 3.13.6 6.15 1.8 9.04 1.2 2.89 2.91 5.44 5.13 7.65 2.21 2.21 4.77 3.92 7.66 5.12 2.9 1.2 5.92 1.8 9.05 1.8 3.13 0 6.15-.6 9.04-1.8 2.9-1.2 5.45-2.91 7.67-5.12a23.27 23.27 0 0 0 5.12-7.65c1.2-2.89 1.8-5.91 1.8-9.04M1377.78 1213.27c0-3.14-.6-6.15-1.8-9.04-1.19-2.89-2.9-5.45-5.12-7.65a23.354 23.354 0 0 0-7.67-5.12c-2.89-1.2-5.91-1.8-9.04-1.8-3.14 0-6.15.6-9.05 1.8-2.89 1.2-5.45 2.9-7.66 5.12-2.22 2.2-3.93 4.76-5.13 7.65-1.2 2.89-1.8 5.9-1.8 9.04 0 3.12.6 6.14 1.8 9.03 1.2 2.89 2.91 5.44 5.13 7.65 2.21 2.22 4.77 3.92 7.66 5.12 2.9 1.19 5.91 1.8 9.05 1.8 3.13 0 6.15-.61 9.04-1.8 2.9-1.2 5.45-2.9 7.67-5.12 2.22-2.21 3.93-4.76 5.12-7.65 1.2-2.89 1.8-5.91 1.8-9.03M1052.1 1514.91c0-3.13-.6-6.15-1.8-9.04-1.2-2.89-2.91-5.44-5.12-7.65a23.354 23.354 0 0 0-7.67-5.12c-2.9-1.2-5.91-1.8-9.05-1.8-3.13 0-6.15.6-9.04 1.8-2.9 1.2-5.46 2.9-7.67 5.12a23.427 23.427 0 0 0-5.12 7.65c-1.2 2.89-1.8 5.91-1.8 9.04 0 3.13.6 6.14 1.8 9.03 1.2 2.89 2.91 5.44 5.12 7.66 2.21 2.21 4.77 3.92 7.67 5.11 2.89 1.2 5.91 1.8 9.04 1.8 3.14 0 6.15-.6 9.05-1.8 2.9-1.19 5.45-2.9 7.67-5.11 2.21-2.22 3.92-4.77 5.12-7.66 1.2-2.89 1.8-5.9 1.8-9.03M1089.48 1868.91c0-3.13-.6-6.14-1.8-9.03-1.2-2.89-2.91-5.44-5.13-7.65a23.159 23.159 0 0 0-7.66-5.12c-2.9-1.2-5.91-1.8-9.05-1.8-3.13 0-6.15.6-9.04 1.8a23.2 23.2 0 0 0-7.67 5.12 23.27 23.27 0 0 0-5.12 7.65c-1.2 2.89-1.8 5.9-1.8 9.03 0 3.13.6 6.14 1.8 9.03 1.2 2.9 2.9 5.45 5.12 7.66 2.22 2.22 4.77 3.92 7.67 5.12 2.89 1.2 5.91 1.79 9.04 1.79 3.14 0 6.15-.59 9.05-1.79 2.89-1.2 5.45-2.9 7.66-5.12 2.22-2.21 3.93-4.76 5.13-7.66 1.2-2.89 1.8-5.9 1.8-9.03" style="fill:#45c0a6;fill-opacity:1;fill-rule:nonzero;stroke:none" transform="matrix(.13333 0 0 -.13333 0 392.16)"/><path d="M1377.78 2716.71c0-3.13-.6-6.14-1.8-9.03-1.19-2.89-2.9-5.45-5.12-7.66a23.483 23.483 0 0 0-7.67-5.11c-2.89-1.2-5.91-1.8-9.04-1.8-3.14 0-6.15.6-9.05 1.8a23.44 23.44 0 0 0-7.66 5.11 23.34 23.34 0 0 0-5.13 7.66c-1.2 2.89-1.8 5.9-1.8 9.03 0 3.13.6 6.15 1.8 9.04 1.2 2.89 2.91 5.44 5.13 7.65 2.21 2.21 4.77 3.92 7.66 5.12 2.9 1.19 5.91 1.8 9.05 1.8 3.13 0 6.15-.61 9.04-1.8 2.9-1.2 5.45-2.91 7.67-5.12 2.22-2.21 3.93-4.76 5.12-7.65 1.2-2.89 1.8-5.91 1.8-9.04M2128.94 2135.78c0-3.13-.6-6.14-1.8-9.03-1.2-2.89-2.91-5.44-5.12-7.66a23.67 23.67 0 0 0-7.67-5.12 23.547 23.547 0 0 0-9.04-1.79 23.597 23.597 0 0 0-16.72 6.91 23.574 23.574 0 0 0-5.12 7.66c-1.2 2.89-1.8 5.9-1.8 9.03 0 3.13.6 6.14 1.8 9.03 1.2 2.89 2.91 5.45 5.12 7.66 2.22 2.22 4.77 3.92 7.67 5.12 2.9 1.2 5.91 1.79 9.05 1.79 3.13 0 6.15-.59 9.04-1.79 2.9-1.2 5.45-2.9 7.67-5.12 2.21-2.21 3.92-4.77 5.12-7.66 1.2-2.89 1.8-5.9 1.8-9.03M1805.03 1456.35c0-3.13-.6-6.14-1.8-9.03-1.2-2.9-2.91-5.45-5.12-7.66a23.458 23.458 0 0 0-7.67-5.12c-2.9-1.2-5.91-1.79-9.05-1.79-3.13 0-6.15.59-9.04 1.79-2.9 1.2-5.45 2.9-7.67 5.12a23.364 23.364 0 0 0-5.12 7.66c-1.2 2.89-1.8 5.9-1.8 9.03 0 3.13.6 6.14 1.8 9.03 1.2 2.89 2.91 5.44 5.12 7.66 2.22 2.21 4.77 3.92 7.67 5.11 2.89 1.2 5.91 1.8 9.04 1.8 3.14 0 6.15-.6 9.05-1.8a23.43 23.43 0 0 0 7.67-5.11c2.21-2.22 3.92-4.77 5.12-7.66 1.2-2.89 1.8-5.9 1.8-9.03M1377.78 1233.24c0-3.14-.6-6.15-1.8-9.04-1.19-2.89-2.9-5.45-5.12-7.65a23.354 23.354 0 0 0-7.67-5.12c-2.89-1.2-5.91-1.8-9.04-1.8-3.14 0-6.15.6-9.05 1.8-2.89 1.2-5.45 2.9-7.66 5.12-2.22 2.2-3.93 4.76-5.13 7.65-1.2 2.89-1.8 5.9-1.8 9.04 0 3.12.6 6.14 1.8 9.03 1.2 2.89 2.91 5.44 5.13 7.66 2.21 2.2 4.77 3.91 7.66 5.11 2.9 1.19 5.91 1.8 9.05 1.8 3.13 0 6.15-.61 9.04-1.8 2.9-1.2 5.45-2.91 7.67-5.11 2.22-2.22 3.93-4.77 5.12-7.66 1.2-2.89 1.8-5.91 1.8-9.03M1076.57 1529.02c0-3.13-.6-6.15-1.8-9.04-1.2-2.89-2.91-5.44-5.12-7.65a23.458 23.458 0 0 0-7.67-5.12c-2.9-1.2-5.91-1.8-9.05-1.8-3.13 0-6.14.6-9.04 1.8-2.89 1.2-5.45 2.9-7.67 5.12a23.27 23.27 0 0 0-5.12 7.65c-1.2 2.89-1.8 5.91-1.8 9.04 0 3.13.6 6.13 1.8 9.03 1.2 2.89 2.9 5.44 5.12 7.66 2.22 2.21 4.78 3.91 7.67 5.11 2.9 1.2 5.91 1.8 9.04 1.8 3.14 0 6.15-.6 9.05-1.8 2.89-1.2 5.45-2.9 7.67-5.11 2.21-2.22 3.92-4.77 5.12-7.66 1.2-2.9 1.8-5.9 1.8-9.03M1074.91 1877.31a23.497 23.497 0 0 0-6.92-16.69 23.223 23.223 0 0 0-7.67-5.11c-2.89-1.2-5.91-1.8-9.04-1.8-3.14 0-6.15.6-9.04 1.8-2.9 1.19-5.46 2.9-7.67 5.11a23.34 23.34 0 0 0-5.13 7.66c-1.2 2.89-1.8 5.9-1.8 9.03 0 3.13.6 6.14 1.8 9.03 1.2 2.9 2.91 5.45 5.13 7.66 2.21 2.21 4.77 3.92 7.67 5.11 2.89 1.21 5.9 1.8 9.04 1.8 3.13 0 6.15-.59 9.04-1.8 2.9-1.19 5.46-2.9 7.67-5.11 2.22-2.21 3.92-4.76 5.13-7.66 1.19-2.89 1.79-5.9 1.79-9.03" style="fill:#2d3c40;fill-opacity:1;fill-rule:nonzero;stroke:none" transform="matrix(.13333 0 0 -.13333 0 392.16)"/><path d="M1377.78 2350.27c0-3.13-.6-6.14-1.8-9.03-1.19-2.89-2.9-5.45-5.12-7.66a23.67 23.67 0 0 0-7.67-5.12 23.547 23.547 0 0 0-9.04-1.79c-3.14 0-6.15.6-9.05 1.79a23.627 23.627 0 0 0-7.66 5.12 23.34 23.34 0 0 0-5.13 7.66c-1.2 2.89-1.8 5.9-1.8 9.03 0 3.13.6 6.14 1.8 9.03 1.2 2.9 2.91 5.45 5.13 7.66 2.21 2.21 4.77 3.92 7.66 5.12 2.9 1.19 5.91 1.8 9.05 1.8 3.13 0 6.15-.61 9.04-1.8 2.9-1.2 5.45-2.91 7.67-5.12 2.22-2.21 3.93-4.76 5.12-7.66 1.2-2.89 1.8-5.9 1.8-9.03M1938.45 2025.95c0-3.13-.6-6.14-1.8-9.03-1.21-2.9-2.91-5.45-5.13-7.66a23.25 23.25 0 0 0-7.67-5.12c-2.89-1.2-5.91-1.8-9.04-1.8-3.14 0-6.15.6-9.04 1.8-2.9 1.2-5.46 2.9-7.67 5.12a23.237 23.237 0 0 0-5.13 7.66c-1.19 2.89-1.79 5.9-1.79 9.03 0 3.12.6 6.14 1.79 9.03 1.2 2.89 2.91 5.44 5.13 7.66 2.21 2.21 4.77 3.91 7.67 5.11 2.89 1.2 5.9 1.8 9.04 1.8 3.13 0 6.15-.6 9.04-1.8 2.9-1.2 5.46-2.9 7.67-5.11 2.22-2.22 3.92-4.77 5.13-7.66 1.2-2.89 1.8-5.91 1.8-9.03M1776.48 1472.81c0-3.13-.6-6.14-1.8-9.04a23.27 23.27 0 0 0-5.12-7.65 23.354 23.354 0 0 0-7.67-5.12c-2.9-1.2-5.91-1.8-9.04-1.8-3.14 0-6.15.6-9.05 1.8-2.89 1.2-5.45 2.9-7.67 5.12a23.427 23.427 0 0 0-5.12 7.65c-1.2 2.9-1.8 5.91-1.8 9.04 0 3.13.6 6.14 1.8 9.03 1.2 2.89 2.91 5.44 5.12 7.66a23.43 23.43 0 0 0 7.67 5.11c2.9 1.2 5.91 1.8 9.05 1.8 3.13 0 6.14-.6 9.04-1.8 2.9-1.19 5.45-2.9 7.67-5.11 2.22-2.22 3.92-4.77 5.12-7.66 1.2-2.89 1.8-5.9 1.8-9.03M1377.78 1227.48c0-3.12-.6-6.14-1.8-9.03-1.19-2.89-2.9-5.44-5.12-7.66a23.483 23.483 0 0 0-7.67-5.11c-2.89-1.2-5.91-1.8-9.04-1.8-3.14 0-6.15.6-9.05 1.8a23.44 23.44 0 0 0-7.66 5.11 23.445 23.445 0 0 0-5.13 7.66c-1.2 2.89-1.8 5.91-1.8 9.03 0 3.14.6 6.15 1.8 9.04 1.2 2.89 2.91 5.44 5.13 7.65 2.21 2.22 4.77 3.92 7.66 5.12 2.9 1.2 5.91 1.8 9.05 1.8 3.13 0 6.15-.6 9.04-1.8 2.9-1.2 5.45-2.9 7.67-5.12 2.22-2.21 3.93-4.76 5.12-7.65 1.2-2.89 1.8-5.9 1.8-9.04M1112.14 1549.52c0-3.12-.6-6.13-1.79-9.02-1.2-2.9-2.91-5.45-5.13-7.66a23.25 23.25 0 0 0-7.67-5.12c-2.89-1.2-5.9-1.79-9.04-1.79-3.13 0-6.15.59-9.05 1.79-2.89 1.2-5.45 2.9-7.66 5.12a23.237 23.237 0 0 0-5.13 7.66c-1.2 2.89-1.8 5.9-1.8 9.02 0 3.13.6 6.15 1.8 9.04 1.2 2.89 2.91 5.44 5.13 7.65 2.21 2.22 4.77 3.93 7.66 5.12 2.9 1.2 5.92 1.8 9.05 1.8 3.14 0 6.15-.6 9.04-1.8 2.9-1.19 5.46-2.9 7.67-5.12 2.22-2.21 3.93-4.76 5.13-7.65 1.19-2.89 1.79-5.91 1.79-9.04M1117.51 1852.75c0-3.13-.6-6.14-1.8-9.04a23.27 23.27 0 0 0-5.12-7.65 23.51 23.51 0 0 0-7.67-5.12c-2.9-1.2-5.91-1.8-9.04-1.8-3.14 0-6.15.6-9.05 1.8-2.89 1.2-5.45 2.91-7.67 5.12a23.427 23.427 0 0 0-5.12 7.65c-1.2 2.9-1.8 5.91-1.8 9.04 0 3.13.6 6.14 1.8 9.03 1.2 2.89 2.91 5.45 5.12 7.66a23.43 23.43 0 0 0 7.67 5.11c2.9 1.21 5.91 1.8 9.05 1.8 3.13 0 6.14-.59 9.04-1.8 2.9-1.19 5.45-2.9 7.67-5.11 2.22-2.21 3.92-4.77 5.12-7.66 1.2-2.89 1.8-5.9 1.8-9.03" style="fill:#f14c5d;fill-opacity:1;fill-rule:nonzero;stroke:none" transform="matrix(.13333 0 0 -.13333 0 392.16)"/><path d="M1377.78 2077.84c0-3.13-.6-6.14-1.8-9.03-1.19-2.89-2.9-5.44-5.12-7.65s-4.77-3.93-7.67-5.12c-2.89-1.2-5.91-1.8-9.04-1.8-3.14 0-6.15.6-9.05 1.8a23.312 23.312 0 0 0-7.66 5.12 23.299 23.299 0 0 0-5.13 7.65c-1.2 2.89-1.8 5.9-1.8 9.03 0 3.14.6 6.14 1.8 9.04 1.2 2.89 2.91 5.44 5.13 7.66a23.44 23.44 0 0 0 7.66 5.11c2.9 1.2 5.91 1.8 9.05 1.8 3.13 0 6.15-.6 9.04-1.8 2.9-1.2 5.45-2.9 7.67-5.11 2.22-2.22 3.93-4.77 5.12-7.66 1.2-2.9 1.8-5.9 1.8-9.04M1703.12 1890.27c0-3.13-.6-6.15-1.8-9.04-1.2-2.89-2.91-5.44-5.12-7.65a23.354 23.354 0 0 0-7.67-5.12c-2.9-1.2-5.91-1.8-9.05-1.8-3.13 0-6.15.6-9.04 1.8-2.9 1.2-5.45 2.9-7.67 5.12a23.427 23.427 0 0 0-5.12 7.65c-1.2 2.89-1.8 5.91-1.8 9.04 0 3.13.6 6.13 1.8 9.03 1.2 2.89 2.91 5.44 5.12 7.66 2.22 2.21 4.77 3.91 7.67 5.11 2.89 1.2 5.91 1.8 9.04 1.8 3.14 0 6.15-.6 9.05-1.8 2.9-1.2 5.45-2.9 7.67-5.11 2.21-2.22 3.92-4.77 5.12-7.66 1.2-2.9 1.8-5.9 1.8-9.03M1756.47 1484.34c0-3.13-.6-6.14-1.8-9.03-1.19-2.89-2.9-5.44-5.12-7.66a23.326 23.326 0 0 0-7.67-5.11c-2.89-1.2-5.91-1.8-9.04-1.8-3.13 0-6.15.6-9.05 1.8-2.89 1.19-5.45 2.9-7.66 5.11a23.445 23.445 0 0 0-5.13 7.66c-1.2 2.89-1.8 5.9-1.8 9.03 0 3.13.6 6.14 1.8 9.04 1.2 2.89 2.91 5.44 5.13 7.65 2.21 2.22 4.77 3.92 7.66 5.12 2.9 1.2 5.92 1.8 9.05 1.8 3.13 0 6.15-.6 9.04-1.8 2.9-1.2 5.45-2.9 7.67-5.12 2.22-2.21 3.93-4.76 5.12-7.65 1.2-2.9 1.8-5.91 1.8-9.04M1377.78 1327.52c0-3.12-.6-6.13-1.8-9.03-1.19-2.89-2.9-5.44-5.12-7.66-2.22-2.2-4.77-3.91-7.67-5.11-2.89-1.2-5.91-1.8-9.04-1.8-3.14 0-6.15.6-9.05 1.8-2.89 1.2-5.45 2.91-7.66 5.11a23.445 23.445 0 0 0-5.13 7.66c-1.2 2.9-1.8 5.91-1.8 9.03 0 3.14.6 6.15 1.8 9.04 1.2 2.89 2.91 5.45 5.13 7.65 2.21 2.22 4.77 3.93 7.66 5.12 2.9 1.2 5.91 1.8 9.05 1.8 3.13 0 6.15-.6 9.04-1.8a23.2 23.2 0 0 0 7.67-5.12c2.22-2.2 3.93-4.76 5.12-7.65 1.2-2.89 1.8-5.9 1.8-9.04M1096.42 1540.46c0-3.13-.6-6.14-1.8-9.03-1.2-2.89-2.91-5.45-5.12-7.66a23.326 23.326 0 0 0-7.67-5.11c-2.89-1.21-5.91-1.8-9.05-1.8-3.13 0-6.14.59-9.04 1.8-2.9 1.19-5.45 2.9-7.67 5.11a23.469 23.469 0 0 0-5.12 7.66c-1.2 2.89-1.8 5.9-1.8 9.03 0 3.13.6 6.14 1.8 9.03 1.2 2.9 2.91 5.45 5.12 7.66a23.51 23.51 0 0 0 7.67 5.12c2.9 1.2 5.91 1.79 9.04 1.79 3.14 0 6.16-.59 9.05-1.79 2.9-1.2 5.45-2.91 7.67-5.12 2.21-2.21 3.92-4.76 5.12-7.66 1.2-2.89 1.8-5.9 1.8-9.03M1128.35 1846.5c0-3.13-.59-6.14-1.79-9.04-1.2-2.89-2.91-5.44-5.12-7.65a23.396 23.396 0 0 0-7.68-5.12c-2.89-1.2-5.9-1.8-9.04-1.8-3.13 0-6.15.6-9.04 1.8-2.9 1.2-5.46 2.9-7.67 5.12a23.427 23.427 0 0 0-5.12 7.65c-1.2 2.9-1.8 5.91-1.8 9.04 0 3.13.6 6.14 1.8 9.03 1.2 2.89 2.91 5.45 5.12 7.66s4.77 3.91 7.67 5.11c2.89 1.2 5.91 1.8 9.04 1.8 3.14 0 6.15-.6 9.04-1.8a23.525 23.525 0 0 0 12.8-12.77c1.2-2.89 1.79-5.9 1.79-9.03" style="fill:#eac41a;fill-opacity:1;fill-rule:nonzero;stroke:none" transform="matrix(.13333 0 0 -.13333 0 392.16)"/><text transform="matrix(1.33333 0 0 1.33154 6.667 88.69)" style="font-variant:normal;font-weight:400;font-size:9.01215px;font-family:'Times New Roman';-inkscape-font-specification:TimesNewRomanPSMT;writing-mode:lr-tb;fill:#040606;fill-opacity:1;fill-rule:nonzero;stroke:none"><tspan x="0 4.5060749 6.7591124 9.7601585 12.013196 18.0243 24.5326" y="0">1 - COV</tspan><tspan x="129.49959 137.51138 140.01677 144.01816 147.01921 151.52342 156.53563" y="-58.248">MicroF1</tspan><tspan x="231.12059 234.12164 238.62772 242.13503 244.63895 249.65114" y="-.001">InstF1</tspan><tspan x="-5.000742 -1.9996959 2.5063791 6.0136986 8.5176086 15.025909 21.534208" y="116.828">InstAUC</tspan><tspan x="129.49959 137.51138 141.51279 145.51418 148.51523 153.0195 158.03171" y="180.817">MacroF1</tspan><tspan x="231.99977 237.83914 242.34521 246.85129 253.3596 259.86792" y="113.823">AvgAUC</tspan></text><path d="M2475.66 59.82c0-3.93-.38-7.808-1.13-11.672a60.163 60.163 0 0 0-3.37-11.218 59.124 59.124 0 0 0-5.46-10.34 58.878 58.878 0 0 0-7.35-9.07 58.331 58.331 0 0 0-8.95-7.438 58.059 58.059 0 0 0-10.22-5.531 58.905 58.905 0 0 0-11.08-3.403c-3.8-.77-7.65-1.16-11.52-1.16-3.88 0-7.73.39-11.53 1.16-3.8.774-7.5 1.903-11.09 3.403a58.327 58.327 0 0 0-10.21 5.531 58.89 58.89 0 0 0-8.96 7.438 59.408 59.408 0 0 0-7.34 9.07 59.124 59.124 0 0 0-5.46 10.34 60.163 60.163 0 0 0-3.37 11.218 61.02 61.02 0 0 0-1.13 11.672c0 3.93.38 7.82 1.13 11.68.76 3.852 1.88 7.59 3.37 11.219 1.48 3.62 3.3 7.07 5.46 10.34a59.148 59.148 0 0 0 7.34 9.062 57.772 57.772 0 0 0 8.96 7.438 57.838 57.838 0 0 0 10.21 5.531 58.348 58.348 0 0 0 11.09 3.41c3.8.762 7.65 1.141 11.53 1.141 3.87 0 7.72-.379 11.52-1.141 3.81-.77 7.5-1.898 11.08-3.41 3.59-1.5 7-3.34 10.22-5.531a57.233 57.233 0 0 0 8.95-7.438c2.75-2.77 5.2-5.8 7.35-9.062a59.683 59.683 0 0 0 5.46-10.34 60.076 60.076 0 0 0 3.37-11.219c.75-3.86 1.13-7.75 1.13-11.68" style="fill:#45c0a6;fill-opacity:1;fill-rule:nonzero;stroke:none" transform="matrix(.13333 0 0 -.13333 0 392.16)"/><path d="M1759.84 59.988c0-3.918-.37-7.808-1.13-11.668a61.258 61.258 0 0 0-3.36-11.218 60.644 60.644 0 0 0-5.46-10.34 59.823 59.823 0 0 0-7.35-9.063 59.12 59.12 0 0 0-8.96-7.437 57.814 57.814 0 0 0-10.21-5.532c-3.58-1.5-7.28-2.64-11.08-3.41a58.652 58.652 0 0 0-11.53-1.148c-3.88 0-7.72.387-11.53 1.148-3.81.77-7.5 1.91-11.09 3.41-3.58 1.5-6.98 3.34-10.21 5.532a59.042 59.042 0 0 0-8.95 7.437c-2.74 2.77-5.2 5.801-7.35 9.063a59.26 59.26 0 0 0-5.46 10.34 59.735 59.735 0 0 0-3.36 11.218c-.76 3.86-1.14 7.75-1.14 11.668 0 3.942.38 7.832 1.14 11.684a59.39 59.39 0 0 0 3.36 11.219 59.754 59.754 0 0 0 12.81 19.41 58.78 58.78 0 0 0 8.95 7.437 58.661 58.661 0 0 0 10.21 5.532c3.59 1.5 7.28 2.628 11.09 3.41 3.81.761 7.65 1.14 11.53 1.14 3.88 0 7.72-.379 11.53-1.14 3.8-.782 7.5-1.91 11.08-3.41a58.302 58.302 0 0 0 10.21-5.532 58.858 58.858 0 0 0 8.96-7.437 60.417 60.417 0 0 0 7.35-9.063 61.16 61.16 0 0 0 5.46-10.347 60.896 60.896 0 0 0 3.36-11.22 60.17 60.17 0 0 0 1.13-11.683" style="fill:#2d3c40;fill-opacity:1;fill-rule:nonzero;stroke:none" transform="matrix(.13333 0 0 -.13333 0 392.16)"/><path d="M3193.55 59.988c0-3.918-.38-7.808-1.13-11.668a61.258 61.258 0 0 0-3.36-11.218 59.991 59.991 0 0 0-5.47-10.34 59.158 59.158 0 0 0-16.3-16.5 57.814 57.814 0 0 0-10.21-5.532c-3.59-1.5-7.28-2.64-11.09-3.41a58.627 58.627 0 0 0-11.52-1.148c-3.89 0-7.73.387-11.54 1.148-3.79.77-7.5 1.91-11.08 3.41-3.58 1.5-6.98 3.34-10.21 5.532a58.633 58.633 0 0 0-8.96 7.437 59.76 59.76 0 0 0-7.34 9.063 59.26 59.26 0 0 0-5.46 10.34 59.735 59.735 0 0 0-3.36 11.218c-.76 3.86-1.14 7.75-1.14 11.668 0 3.942.38 7.832 1.14 11.684a59.39 59.39 0 0 0 3.36 11.219c1.48 3.629 3.3 7.07 5.46 10.347a60.353 60.353 0 0 0 7.34 9.063 58.376 58.376 0 0 0 8.96 7.437 58.661 58.661 0 0 0 10.21 5.532 60.03 60.03 0 0 0 11.08 3.41c3.81.761 7.65 1.14 11.54 1.14 3.87 0 7.71-.379 11.52-1.14 3.81-.782 7.5-1.91 11.09-3.41a58.302 58.302 0 0 0 10.21-5.532 58.858 58.858 0 0 0 8.96-7.437 59.74 59.74 0 0 0 7.34-9.063 60.498 60.498 0 0 0 5.47-10.347 60.896 60.896 0 0 0 3.36-11.22 60.96 60.96 0 0 0 1.13-11.683" style="fill:#f14c5d;fill-opacity:1;fill-rule:nonzero;stroke:none" transform="matrix(.13333 0 0 -.13333 0 392.16)"/><path d="M3904.17 59.988c0-3.918-.38-7.808-1.13-11.668a60.487 60.487 0 0 0-3.36-11.218 59.944 59.944 0 0 0-5.46-10.34 59.221 59.221 0 0 0-7.35-9.063 58.556 58.556 0 0 0-8.95-7.437 58.255 58.255 0 0 0-10.22-5.532c-3.58-1.5-7.28-2.64-11.08-3.41a58.652 58.652 0 0 0-11.53-1.148c-3.88 0-7.72.387-11.53 1.148-3.8.77-7.5 1.91-11.08 3.41-3.59 1.5-6.99 3.34-10.22 5.532a59.042 59.042 0 0 0-8.95 7.437c-2.75 2.77-5.19 5.801-7.35 9.063a59.944 59.944 0 0 0-5.46 10.34 61.258 61.258 0 0 0-3.36 11.218c-.76 3.86-1.14 7.75-1.14 11.668 0 3.942.38 7.832 1.14 11.684.76 3.848 1.88 7.59 3.36 11.219a60.45 60.45 0 0 0 5.46 10.347 59.803 59.803 0 0 0 7.35 9.063 58.78 58.78 0 0 0 8.95 7.437 58.39 58.39 0 0 0 10.22 5.532c3.58 1.5 7.28 2.628 11.08 3.41 3.81.761 7.65 1.14 11.53 1.14 3.88 0 7.72-.379 11.53-1.14 3.8-.782 7.5-1.91 11.08-3.41a58.75 58.75 0 0 0 10.22-5.532 58.3 58.3 0 0 0 8.95-7.437 59.803 59.803 0 0 0 7.35-9.063 60.45 60.45 0 0 0 5.46-10.347 60.134 60.134 0 0 0 3.36-11.22 60.96 60.96 0 0 0 1.13-11.683" style="fill:#eac41a;fill-opacity:1;fill-rule:nonzero;stroke:none" transform="matrix(.13333 0 0 -.13333 0 392.16)"/><text transform="matrix(1.33333 0 0 1.33154 237.73 387.632)" style="font-variant:normal;font-weight:400;font-size:8.39815px;font-family:'Times New Roman';-inkscape-font-specification:TimesNewRomanPSMT;writing-mode:lr-tb;fill:#040606;fill-opacity:1;fill-rule:nonzero;stroke:none"><tspan x="0 4.6708984 9.3417969 16.808609 21.938477 28.002918 71.999039 78.063484 83.193359 89.257782 94.859344 100.92379 105.74215 143.99803 151.46579 156.59567 159.39226 164.52214 170.1237 175.72528 215.99873 221.12862 226.2585 233.72528" y="0">SPMLD GLOCAL ML-LRC LEML</tspan></text><path d="m4096.75 1482.08-25.44 14.69 2.36 1.36 14.32-8.27 8.76-7.78M4067.37 1503.58v398.27l2.36-1.36v-395.54l-2.36-1.37M4073.67 1907.31l-2.36 1.36 47.37 27.34-3.14-4.54-41.87-24.16M4949.18 1402.08l-2.36 1.36v259.64l2.36 4.5v-265.5M4424.26 1094.63v2.73l518.62 299.27 2.36-1.36-520.98-300.64M4416.39 1094.63l-520.97 300.64 2.36 1.36 518.61-299.27v-2.73M3891.48 1402.08v601.28l2.36-1.37v-598.54l-2.36-1.37M3897.78 2008.81l-2.36 1.36 360.08 207.79-1.07-3.34-356.65-205.81M5125.07 1300.58l-2.36 1.36v696.31l2.36 4.5v-702.17M4424.26 891.641v2.718l694.51 400.771 2.36-1.36-696.87-402.129M4416.39 891.641l-696.86 402.129 2.36 1.36 694.5-400.771v-2.718M3715.59 1300.58v804.28l2.36-1.37v-801.54l-2.36-1.37M3721.89 2110.31l-2.36 1.36 615.43 355.14-1.07-3.34-612-353.16M5300.96 1199.08l-2.36 1.36v1004.55l2.36 1.37V1199.08M4424.26 688.641v2.718l870.4 502.271 2.36-1.36-872.76-503.629M4416.39 688.641l-872.75 503.629 2.36 1.36 870.39-502.271v-2.718M3539.7 1199.08v1007.27l2.37-1.36V1200.45l-2.37-1.37M3546.01 2211.8l-2.37 1.37 870.79 502.5-1.07-3.34-867.35-500.53" style="fill:#abadac;fill-opacity:1;fill-rule:nonzero;stroke:none" transform="matrix(.13333 0 0 -.13333 0 392.16)"/><path d="m5294.66 2211.8-824.76 475.94-17.9 13.06 845.02-487.63-2.36-1.37" style="fill:#979999;fill-opacity:1;fill-rule:nonzero;stroke:none" transform="matrix(.13333 0 0 -.13333 0 392.16)"/><path d="m4424.26 2721.03-6.59 4.81-1.28-4.02v108.67h7.87v-109.46M5201.93 2149.21l1.75 3.34-5.17 3.77 96.15 55.48 3.94-2.27v-4.54l-96.67-55.78m99.03 57.15v3.85h-1.18l.59 1.03-3.35 1.93 98.51 56.85 3.93-6.82-98.5-56.84" style="fill:#929493;fill-opacity:1;fill-rule:nonzero;stroke:none" transform="matrix(.13333 0 0 -.13333 0 392.16)"/><path d="M5298.6 2204.99v4.54l.59-.34.59 1.02h1.18v-3.85l-2.36-1.37" style="fill:#7e8182;fill-opacity:1;fill-rule:nonzero;stroke:none" transform="matrix(.13333 0 0 -.13333 0 392.16)"/><path d="m5298.6 2209.53-3.94 2.27 2.36 1.37 3.35-1.93-.59-1.03h-1.18v-.68" style="fill:#797d7e;fill-opacity:1;fill-rule:nonzero;stroke:none" transform="matrix(.13333 0 0 -.13333 0 392.16)"/><path d="m5299.19 2209.19-.59.34v.68h1.18l-.59-1.02" style="fill:#787c7d;fill-opacity:1;fill-rule:nonzero;stroke:none" transform="matrix(.13333 0 0 -.13333 0 392.16)"/><path d="m5395.53 1135.42-98.51 56.85 3.35 1.93-.59 1.02h1.18v3.86l98.5-56.84-3.93-6.82m-100.87 58.21-173.53 100.14 3.35 1.93-.59 1.02h1.18v3.86l173.53-100.14v-4.54l-3.94-2.27m-175.89 101.5-173.53 100.14 3.35 1.93-.59 1.02h1.18v3.86l173.53-100.14v-4.54l-3.94-2.27m-175.89 101.5-85.84 49.53 3.48 2 .78 4.64 85.52-49.36v-4.54l-3.94-2.27" style="fill:#929493;fill-opacity:1;fill-rule:nonzero;stroke:none" transform="matrix(.13333 0 0 -.13333 0 392.16)"/><path d="M4949.18 1398.22H4948l-.59 1.02-.59-.34v4.54l2.36-1.36v-3.86M4945.24 1395.27l-2.36 1.36 3.94 2.27v-.68h1.18l.59-1.02-3.35-1.93" style="fill:#7e8182;fill-opacity:1;fill-rule:nonzero;stroke:none" transform="matrix(.13333 0 0 -.13333 0 392.16)"/><path d="M4948 1398.22h-1.18v.68l.59.34.59-1.02" style="fill:#797d7e;fill-opacity:1;fill-rule:nonzero;stroke:none" transform="matrix(.13333 0 0 -.13333 0 392.16)"/><path d="M5125.07 1296.72h-1.18l-.59 1.03-.59-.35v4.54l2.36-1.36v-3.86" style="fill:#7e8182;fill-opacity:1;fill-rule:nonzero;stroke:none" transform="matrix(.13333 0 0 -.13333 0 392.16)"/><path d="m5121.13 1293.77-2.36 1.36 3.94 2.27v-.68h1.18l.59-1.02-3.35-1.93" style="fill:#7e8182;fill-opacity:1;fill-rule:nonzero;stroke:none" transform="matrix(.13333 0 0 -.13333 0 392.16)"/><path d="M5123.89 1296.72h-1.18v.68l.59.35.59-1.03" style="fill:#797d7e;fill-opacity:1;fill-rule:nonzero;stroke:none" transform="matrix(.13333 0 0 -.13333 0 392.16)"/><path d="M5300.96 1195.22h-1.18l-.59 1.02-.59-.34v4.54l2.36-1.36v-3.86" style="fill:#7e8182;fill-opacity:1;fill-rule:nonzero;stroke:none" transform="matrix(.13333 0 0 -.13333 0 392.16)"/><path d="m5297.02 1192.27-2.36 1.36 3.94 2.27v-.68h1.18l.59-1.02-3.35-1.93" style="fill:#7e8182;fill-opacity:1;fill-rule:nonzero;stroke:none" transform="matrix(.13333 0 0 -.13333 0 392.16)"/><path d="M5299.78 1195.22h-1.18v.68l.59.34.59-1.02" style="fill:#797d7e;fill-opacity:1;fill-rule:nonzero;stroke:none" transform="matrix(.13333 0 0 -.13333 0 392.16)"/><path d="M4424.26 574.949h-7.87v113.692l3.35-1.93.59 1.019.59-1.019 3.34 1.93V574.949m-3.93 114.141-3.94 2.269v200.282l3.35-1.942.59 1.031.59-1.031 3.34 1.942V691.359l-3.93-2.269m0 203-3.94 2.269v200.271l3.35-1.93.59 1.02.59-1.02 3.34 1.93V894.359l-3.93-2.269m0 203-3.94 2.27v100.73l3.31-2.93 4.56 2.62v-100.42l-3.93-2.27" style="fill:#929493;fill-opacity:1;fill-rule:nonzero;stroke:none" transform="matrix(.13333 0 0 -.13333 0 392.16)"/><path d="m4420.92 1092.7-.59 1.02.59 1.03-.59.34 3.93 2.27v-2.73l-3.34-1.93M4419.74 1092.7l-3.35 1.93v2.73l3.94-2.27-.59-.34.59-1.03-.59-1.02" style="fill:#7e8182;fill-opacity:1;fill-rule:nonzero;stroke:none" transform="matrix(.13333 0 0 -.13333 0 392.16)"/><path d="m4420.33 1093.72-.59 1.03.59.34.59-.34-.59-1.03" style="fill:#797d7e;fill-opacity:1;fill-rule:nonzero;stroke:none" transform="matrix(.13333 0 0 -.13333 0 392.16)"/><path d="m4420.92 889.699-.59 1.031.59 1.02-.59.34 3.93 2.269v-2.718l-3.34-1.942M4419.74 889.699l-3.35 1.942v2.718l3.94-2.269-.59-.34.59-1.02-.59-1.031" style="fill:#7e8182;fill-opacity:1;fill-rule:nonzero;stroke:none" transform="matrix(.13333 0 0 -.13333 0 392.16)"/><path d="m4420.33 890.73-.59 1.02.59.34.59-.34-.59-1.02" style="fill:#797d7e;fill-opacity:1;fill-rule:nonzero;stroke:none" transform="matrix(.13333 0 0 -.13333 0 392.16)"/><path d="m4420.92 686.711-.59 1.019.59 1.02-.59.34 3.93 2.269v-2.718l-3.34-1.93M4419.74 686.711l-3.35 1.93v2.718l3.94-2.269-.59-.34.59-1.02-.59-1.019" style="fill:#7e8182;fill-opacity:1;fill-rule:nonzero;stroke:none" transform="matrix(.13333 0 0 -.13333 0 392.16)"/><path d="m4420.33 687.73-.59 1.02.59.34.59-.34-.59-1.02" style="fill:#797d7e;fill-opacity:1;fill-rule:nonzero;stroke:none" transform="matrix(.13333 0 0 -.13333 0 392.16)"/><path d="m3445.14 1135.42-3.94 6.82 98.5 56.84v-3.86h1.18l-.59-1.02 3.35-1.93-98.5-56.85m100.86 58.21-3.93 2.27v4.55l173.52 100.13v-3.86h1.18l-.59-1.02 3.35-1.93L3546 1193.63m175.89 101.5-3.94 2.27v4.55l173.53 100.13v-3.86h1.18l-.59-1.02 3.35-1.93-173.53-100.14m175.89 101.5-3.94 2.27v4.55l173.53 100.13v-3.86h1.18l-.59-1.02 3.35-1.93-173.53-100.14m175.89 101.5-3.94 2.27v4.55l3.51 2.02-.15-3.86 3.62-3.22-3.04-1.76" style="fill:#929493;fill-opacity:1;fill-rule:nonzero;stroke:none" transform="matrix(.13333 0 0 -.13333 0 392.16)"/><path d="m4071.31 1496.77-3.35 1.93.59 1.02h1.18v.68l3.94-2.27-2.36-1.36" style="fill:#7e8182;fill-opacity:1;fill-rule:nonzero;stroke:none" transform="matrix(.13333 0 0 -.13333 0 392.16)"/><path d="M4068.55 1499.72h-1.18v3.86l2.36 1.37v-4.55l-.59.34-.59-1.02" style="fill:#7e8182;fill-opacity:1;fill-rule:nonzero;stroke:none" transform="matrix(.13333 0 0 -.13333 0 392.16)"/><path d="M4069.73 1499.72h-1.18l.59 1.02.59-.34v-.68" style="fill:#797d7e;fill-opacity:1;fill-rule:nonzero;stroke:none" transform="matrix(.13333 0 0 -.13333 0 392.16)"/><path d="m3895.42 1395.27-3.35 1.93.59 1.02h1.18v.68l3.94-2.27-2.36-1.36" style="fill:#7e8182;fill-opacity:1;fill-rule:nonzero;stroke:none" transform="matrix(.13333 0 0 -.13333 0 392.16)"/><path d="M3892.66 1398.22h-1.18v3.86l2.36 1.37v-4.55l-.59.34-.59-1.02" style="fill:#7e8182;fill-opacity:1;fill-rule:nonzero;stroke:none" transform="matrix(.13333 0 0 -.13333 0 392.16)"/><path d="M3893.84 1398.22h-1.18l.59 1.02.59-.34v-.68" style="fill:#797d7e;fill-opacity:1;fill-rule:nonzero;stroke:none" transform="matrix(.13333 0 0 -.13333 0 392.16)"/><path d="m3719.53 1293.77-3.35 1.93.59 1.02h1.18v.68l3.94-2.27-2.36-1.36" style="fill:#7e8182;fill-opacity:1;fill-rule:nonzero;stroke:none" transform="matrix(.13333 0 0 -.13333 0 392.16)"/><path d="M3716.77 1296.72h-1.18v3.86l2.36 1.37v-4.55l-.59.35-.59-1.03" style="fill:#7e8182;fill-opacity:1;fill-rule:nonzero;stroke:none" transform="matrix(.13333 0 0 -.13333 0 392.16)"/><path d="M3717.95 1296.72h-1.18l.59 1.03.59-.35v-.68" style="fill:#797d7e;fill-opacity:1;fill-rule:nonzero;stroke:none" transform="matrix(.13333 0 0 -.13333 0 392.16)"/><path d="m3543.64 1192.27-3.35 1.93.59 1.02h1.19v.68l3.93-2.27-2.36-1.36" style="fill:#7e8182;fill-opacity:1;fill-rule:nonzero;stroke:none" transform="matrix(.13333 0 0 -.13333 0 392.16)"/><path d="M3540.88 1195.22h-1.18v3.86l2.37 1.37v-4.55l-.6.34-.59-1.02" style="fill:#7e8182;fill-opacity:1;fill-rule:nonzero;stroke:none" transform="matrix(.13333 0 0 -.13333 0 392.16)"/><path d="M3542.07 1195.22h-1.19l.59 1.02.6-.34v-.68" style="fill:#797d7e;fill-opacity:1;fill-rule:nonzero;stroke:none" transform="matrix(.13333 0 0 -.13333 0 392.16)"/><path d="m4088.69 1889.55-18.96 10.94v4.54l3.94 2.28 17.98-10.38-2.83-4.1-.13-3.28m-21.32 12.3-173.53 100.14v4.54l3.94 2.28 173.53-100.14-3.35-1.93.59-1.02h-1.18v-3.87m-175.89 101.51-173.53 100.13v4.54l3.94 2.28 173.53-100.14-3.35-1.93.59-1.03h-1.18v-3.85m-175.89 101.5-173.52 100.13v4.54l3.94 2.27 173.52-100.13-3.35-1.93.59-1.03h-1.18v-3.85m-175.89 101.49-98.5 56.85 3.94 6.82 98.5-56.85-3.35-1.93.59-1.03h-1.18v-3.86" style="fill:#929493;fill-opacity:1;fill-rule:nonzero;stroke:none" transform="matrix(.13333 0 0 -.13333 0 392.16)"/><path d="m4069.73 1900.49-2.36 1.36v3.87h1.18l.59-1.03.59.34v-4.54M4069.73 1905.03v.69h-1.18l-.59 1.02 3.35 1.93 2.36-1.36-3.94-2.28" style="fill:#7e8182;fill-opacity:1;fill-rule:nonzero;stroke:none" transform="matrix(.13333 0 0 -.13333 0 392.16)"/><path d="m4069.14 1904.69-.59 1.03h1.18v-.69l-.59-.34" style="fill:#797d7e;fill-opacity:1;fill-rule:nonzero;stroke:none" transform="matrix(.13333 0 0 -.13333 0 392.16)"/><path d="m3893.84 2001.99-2.36 1.37v3.85h1.18l.59-1.02.59.34v-4.54M3893.84 2006.53v.68h-1.18l-.59 1.03 3.35 1.93 2.36-1.36-3.94-2.28" style="fill:#7e8182;fill-opacity:1;fill-rule:nonzero;stroke:none" transform="matrix(.13333 0 0 -.13333 0 392.16)"/><path d="m3893.25 2006.19-.59 1.02h1.18v-.68l-.59-.34" style="fill:#797d7e;fill-opacity:1;fill-rule:nonzero;stroke:none" transform="matrix(.13333 0 0 -.13333 0 392.16)"/><path d="m3717.95 2103.49-2.36 1.37v3.85h1.18l.59-1.02.59.34v-4.54M3717.95 2108.03v.68h-1.18l-.59 1.03 3.35 1.93 2.36-1.36-3.94-2.28" style="fill:#7e8182;fill-opacity:1;fill-rule:nonzero;stroke:none" transform="matrix(.13333 0 0 -.13333 0 392.16)"/><path d="m3717.36 2107.69-.59 1.02h1.18v-.68l-.59-.34" style="fill:#797d7e;fill-opacity:1;fill-rule:nonzero;stroke:none" transform="matrix(.13333 0 0 -.13333 0 392.16)"/><path d="m3542.07 2204.99-2.37 1.36v3.86h1.18l.59-1.02.6.34v-4.54" style="fill:#7e8182;fill-opacity:1;fill-rule:nonzero;stroke:none" transform="matrix(.13333 0 0 -.13333 0 392.16)"/><path d="M3542.07 2209.53v.68h-1.19l-.59 1.03 3.35 1.93 2.37-1.37-3.94-2.27" style="fill:#7e8182;fill-opacity:1;fill-rule:nonzero;stroke:none" transform="matrix(.13333 0 0 -.13333 0 392.16)"/><path d="m3541.47 2209.19-.59 1.02h1.19v-.68l-.6-.34" style="fill:#797d7e;fill-opacity:1;fill-rule:nonzero;stroke:none" transform="matrix(.13333 0 0 -.13333 0 392.16)"/><path d="M4424.26 1209.31v14.13l225.19 137.57 187.61 96.68 9.97-5.75-422.77-242.63m-7.87 2.16-276.68 245.82 102.01-58.86 18.8-16.48 155.87-158.18v-12.3m-183.78 194.94-101.66 58.67-45.11 40.07 20.55 11.86 126.22-110.6" style="fill:#94dbce;fill-opacity:1;fill-rule:nonzero;stroke:none" transform="matrix(.13333 0 0 -.13333 0 392.16)"/><path d="m4241.72 1398.43-102.01 58.86-8.76 7.79 101.66-58.67 9.11-7.98" style="fill:#69bdac;fill-opacity:1;fill-rule:nonzero;stroke:none" transform="matrix(.13333 0 0 -.13333 0 392.16)"/><path d="m4852.05 1458.13-9.81 5.66 15.76 30.03-5.95-35.69m-768.56 54.76 14.98 371.02 42.98-24.8-38.44-334.96-19.52-11.26m59.96 354.15-43.11 24.87 35.43 51.23 39.2 22.63-31.52-98.73m-4.54 80.64 56.27 81.38-19.14-59.95-37.13-21.43" style="fill:#94dbce;fill-opacity:1;fill-rule:nonzero;stroke:none" transform="matrix(.13333 0 0 -.13333 0 392.16)"/><path d="m4135.77 1943.14 3.14 4.54 37.13 21.43-1.07-3.34-39.2-22.63" style="fill:#69bdac;fill-opacity:1;fill-rule:nonzero;stroke:none" transform="matrix(.13333 0 0 -.13333 0 392.16)"/><path d="m4847.03 1451.94-9.97 5.75 2.71 1.39 2.47 4.71 9.81-5.66-.61-3.65-4.41-2.54M4420.96 1207.41l-4.57 4.06v12.3l3.16-3.21 4.71 2.88v-14.13l-3.3-1.9M4085.84 1505.15l-2.57 2.29.22 5.45 19.52 11.26-.44-3.8 3.82-3.34-20.55-11.86M4141.45 1859.11l-42.98 24.8.22 5.62 1.65 2.38 43.11-24.87-1.71-5.34-.29-2.59" style="fill:#5eaea0;fill-opacity:1;fill-rule:nonzero;stroke:none" transform="matrix(.13333 0 0 -.13333 0 392.16)"/><path d="m4420.33 2363.44-2.8-4.15 525.74-354-91.83-550.81-430.48-247.07-337.69 300.03 15.42 382.09 325.75 471.06-4.11 2.85-2.8-4.15 2.8 4.15-4.12 2.84-327.39-473.45-15.73-389.72 346.61-307.95 440.82 253 93.68 561.83-535.18 360.35-2.81-4.06 4.12-2.84" style="fill:#45c0a6;fill-opacity:1;fill-rule:nonzero;stroke:none" transform="matrix(.13333 0 0 -.13333 0 392.16)"/><path d="m4878.11 1553.67 35.04 210.14 33.67 112.99v-192.2l-68.71-130.93m71.07 135.43v195.62l42.7 143.27 130.83 75.5v-83.72l-173.53-330.67m175.89 335.17v80.59l60.66 35-60.66-115.59" style="fill:#a2acab;fill-opacity:1;fill-rule:nonzero;stroke:none" transform="matrix(.13333 0 0 -.13333 0 392.16)"/><path d="M4946.82 1684.6v192.2l2.36 7.92V1689.1l-2.36-4.5M5122.71 2019.77v83.72l2.36 1.37v-80.59l-2.36-4.5" style="fill:#747f80;fill-opacity:1;fill-rule:nonzero;stroke:none" transform="matrix(.13333 0 0 -.13333 0 392.16)"/><path d="m4988.41 2035.08-564.15 384.74v91.25l694.51-400.76-130.36-75.23m132.72 76.59-696.87 402.13v194.85l764.77-557.79-67.9-39.19" style="fill:#a2acab;fill-opacity:1;fill-rule:nonzero;stroke:none" transform="matrix(.13333 0 0 -.13333 0 392.16)"/><path d="m5118.77 2110.31-694.51 400.76v2.73l696.87-402.13-2.36-1.36" style="fill:#6a7476;fill-opacity:1;fill-rule:nonzero;stroke:none" transform="matrix(.13333 0 0 -.13333 0 392.16)"/><path d="m4225.11 2089.93 42.19 132.11 81.77 47.19-.07-.15-123.89-179.15m43.26 135.46 78.39 245.51 69.63 40.17v-91.18l-.63-1.4-65.05-145.59-82.34-47.51m79.46 248.85 68.56 214.71V2513.8l-68.56-39.56" style="fill:#a2acab;fill-opacity:1;fill-rule:nonzero;stroke:none" transform="matrix(.13333 0 0 -.13333 0 392.16)"/><path d="m4267.3 2222.04 1.07 3.35 82.34 47.51-1.64-3.67-81.77-47.19M4346.76 2470.9l1.07 3.34 68.56 39.56v-2.73l-69.63-40.17" style="fill:#747f80;fill-opacity:1;fill-rule:nonzero;stroke:none" transform="matrix(.13333 0 0 -.13333 0 392.16)"/><path d="m4424.26 2419.82-6.06 4.13-1.81-4.06v91.18l3.94 2.28 3.93-2.28v-91.25m-7.87 93.98v175.15l6.59 20.64 1.28-.94V2513.8l-3.34 1.93-.59-1.02-.59 1.02-3.35-1.93" style="fill:#667072;fill-opacity:1;fill-rule:nonzero;stroke:none" transform="matrix(.13333 0 0 -.13333 0 392.16)"/><path d="M4416.39 2511.07v2.73l3.35 1.93.59-1.02-.59-1.02.59-.34-3.94-2.28" style="fill:#5c6668;fill-opacity:1;fill-rule:nonzero;stroke:none" transform="matrix(.13333 0 0 -.13333 0 392.16)"/><path d="m4424.26 2511.07-3.93 2.28.59.34-.59 1.02.59 1.02 3.34-1.93v-2.73" style="fill:#596365;fill-opacity:1;fill-rule:nonzero;stroke:none" transform="matrix(.13333 0 0 -.13333 0 392.16)"/><path d="m4420.33 2513.35-.59.34.59 1.02.59-1.02-.59-.34" style="fill:#596265;fill-opacity:1;fill-rule:nonzero;stroke:none" transform="matrix(.13333 0 0 -.13333 0 392.16)"/><path d="m4991.88 2027.99 1.17 3.93-4.64 3.16 130.36 75.23 3.94-2.28v-4.54l-130.83-75.5m133.19 76.87v3.85h-1.18l.59 1.03-3.35 1.93 67.9 39.19 1.79-1.31-5.09-9.69-60.66-35" style="fill:#667072;fill-opacity:1;fill-rule:nonzero;stroke:none" transform="matrix(.13333 0 0 -.13333 0 392.16)"/><path d="M5122.71 2103.49v4.54l.59-.34.59 1.02h1.18v-3.85l-2.36-1.37" style="fill:#5c6668;fill-opacity:1;fill-rule:nonzero;stroke:none" transform="matrix(.13333 0 0 -.13333 0 392.16)"/><path d="m5122.71 2108.03-3.94 2.28 2.36 1.36 3.35-1.93-.59-1.03h-1.18v-.68" style="fill:#596365;fill-opacity:1;fill-rule:nonzero;stroke:none" transform="matrix(.13333 0 0 -.13333 0 392.16)"/><path d="m5123.3 2107.69-.59.34v.68h1.18l-.59-1.02" style="fill:#596265;fill-opacity:1;fill-rule:nonzero;stroke:none" transform="matrix(.13333 0 0 -.13333 0 392.16)"/><path d="m4767.07 1432.87 54.89 33.54 4.81-2.78-59.7-30.76m66.5 35.92-7.11 4.11 63.68 213.68-26.88-161.22-29.69-56.57m-668.95 10.49-49.08 43.01 4.27 2.46 44.81-45.47m-50.83 51.09 26.35 229.62-6.47-108.22-17.04-119.76-2.84-1.64m40.96 339.2 33.09 103.62 39 22.51-43.5-97.35-28.59-28.78m34.16 106.97 25.78 80.73 112.11 162.12-98.32-220.02-39.57-22.83" style="fill:#6aa39c;fill-opacity:1;fill-rule:nonzero;stroke:none" transform="matrix(.13333 0 0 -.13333 0 392.16)"/><path d="m4187.84 1973.19 1.07 3.35 39.57 22.83-1.64-3.67-39-22.51" style="fill:#528782;fill-opacity:1;fill-rule:nonzero;stroke:none" transform="matrix(.13333 0 0 -.13333 0 392.16)"/><path d="m4826.77 1463.63-4.81 2.78 3.14 1.91 1.36 4.58 7.11-4.11-1.19-2.26-5.61-2.9M4115.54 1522.29l-2.44 2.13.69 5.95 2.84 1.64-.5-3.52 3.68-3.74-4.27-2.46" style="fill:#4b7e7a;fill-opacity:1;fill-rule:nonzero;stroke:none" transform="matrix(.13333 0 0 -.13333 0 392.16)"/><path d="m4863.26 1525.36 26.88 161.22 23.01 77.23-35.04-210.14-14.85-28.31m-648.57 531.91 10.42 32.66L4349 2269.08l-22.2-49.69-112.11-162.12" style="fill:#358e83;fill-opacity:1;fill-rule:nonzero;stroke:none" transform="matrix(.13333 0 0 -.13333 0 392.16)"/><path d="m4420.33 2717.71-2.95-4.03 773.44-564.13-358.44-683.02-411.32-211.95-307.96 269.84 38.47 335.17 273.52 856.6-4.76 1.52-2.95-4.03 2.95 4.03-4.77 1.52-273.82-857.53-39.17-341.35 317.02-277.78 420.18 216.51 363.91 693.47-786.01 573.29-2.11-6.61 4.77-1.52" style="fill:#2d3c40;fill-opacity:1;fill-rule:nonzero;stroke:none" transform="matrix(.13333 0 0 -.13333 0 392.16)"/><path d="M4424.26 1235.16v9.82l102.67 52.9-102.67-62.72m-7.87 2.86-53.1 53.89 53.1-46.53v-7.36" style="fill:#b6a19c;fill-opacity:1;fill-rule:nonzero;stroke:none" transform="matrix(.13333 0 0 -.13333 0 392.16)"/><path d="m4421.1 1233.23-4.71 4.79v7.36l3.2-2.81 4.67 2.41v-9.82l-3.16-1.93" style="fill:#8e7c7a;fill-opacity:1;fill-rule:nonzero;stroke:none" transform="matrix(.13333 0 0 -.13333 0 392.16)"/><path d="m4926.4 1843.29 20.42 122.47v-53.95l-20.42-68.52m22.78 76.44v60.2l4.33 25.92 25.77 14.87-30.1-100.99" style="fill:#c77f88;fill-opacity:1;fill-rule:nonzero;stroke:none" transform="matrix(.13333 0 0 -.13333 0 392.16)"/><path d="M4946.82 1911.81v53.95l2.36 14.17v-60.2l-2.36-7.92" style="fill:#a8666f;fill-opacity:1;fill-rule:nonzero;stroke:none" transform="matrix(.13333 0 0 -.13333 0 392.16)"/><path d="m4949.92 2012.87-525.66 353.94v40.9l554.53-378.18-28.87-16.66m-569.96 300.98 36.43 81.53v-28.85l-.18-.25-36.25-52.43" style="fill:#c77f88;fill-opacity:1;fill-rule:nonzero;stroke:none" transform="matrix(.13333 0 0 -.13333 0 392.16)"/><path d="M4416.39 2366.53v28.85l6.06 13.57 1.81-1.24v-40.9l-5.24 3.53-2.63-3.81M4953.51 2005.85l.69 4.14-4.28 2.88 28.87 16.66 2.59-1.76-2.1-7.05-25.77-14.87" style="fill:#a05e66;fill-opacity:1;fill-rule:nonzero;stroke:none" transform="matrix(.13333 0 0 -.13333 0 392.16)"/><path d="M4424.26 1256.23v32.03l386.57 184.57 1.27-.73-167.55-102.36-220.29-113.51m-7.87 2.44-130.22 114.11 100.05-57.74 30.17-25.35v-31.02m-40.53 65.08-98.81 57.01-9.66 8.47-138.63 140.69 1.03.59 246.07-206.76" style="fill:#9a7779;fill-opacity:1;fill-rule:nonzero;stroke:none" transform="matrix(.13333 0 0 -.13333 0 392.16)"/><path d="m4386.22 1315.04-100.05 57.74-9.12 7.98 98.81-57.01 10.36-8.71" style="fill:#8b686a;fill-opacity:1;fill-rule:nonzero;stroke:none" transform="matrix(.13333 0 0 -.13333 0 392.16)"/><path d="m4817.56 1478.04-2.4 1.38 1.96 447.73 125.17 72.23-38.9-233.32-85.83-288.02m-614.31 440.35 38.35 85.82 109.93 63.44-148.28-149.26m39.99 89.5 114.51 256.27 11.61 16.78 47.03 27.14v-175.14l-58.51-58.9-114.64-66.15m129.25 277.58 43.9 63.48v-38.15l-43.9-25.33" style="fill:#9a7779;fill-opacity:1;fill-rule:nonzero;stroke:none" transform="matrix(.13333 0 0 -.13333 0 392.16)"/><path d="m4241.6 2004.21 1.64 3.68 114.64 66.15-6.35-6.39-109.93-63.44M4369.36 2280.94l3.13 4.53 43.9 25.33v-2.72l-47.03-27.14" style="fill:#8b686a;fill-opacity:1;fill-rule:nonzero;stroke:none" transform="matrix(.13333 0 0 -.13333 0 392.16)"/><path d="m4812.99 1933.86-388.73 201.01v173.21l484.84-279.78 31.18-20.99-127.29-73.45m67.78 113.52-456.51 263.42v43.96l456.51-307.38" style="fill:#9a7779;fill-opacity:1;fill-rule:nonzero;stroke:none" transform="matrix(.13333 0 0 -.13333 0 392.16)"/><path d="m4909.1 2028.3-484.84 279.78v2.72l456.51-263.42 28.33-19.08" style="fill:#876566;fill-opacity:1;fill-rule:nonzero;stroke:none" transform="matrix(.13333 0 0 -.13333 0 392.16)"/><path d="M4416.39 2132.94v175.14l3.94 2.27 3.93-2.27v-173.21l-3.93 2.03-3.94-3.96m0 177.86v38.15l5.24 7.58 2.63-1.77v-43.96l-3.34 1.93-.59-1.02-.59 1.02-3.35-1.93" style="fill:#866365;fill-opacity:1;fill-rule:nonzero;stroke:none" transform="matrix(.13333 0 0 -.13333 0 392.16)"/><path d="M4416.39 2308.08v2.72l3.35 1.93.59-1.02-.59-1.02.59-.34-3.94-2.27" style="fill:#816062;fill-opacity:1;fill-rule:nonzero;stroke:none" transform="matrix(.13333 0 0 -.13333 0 392.16)"/><path d="m4424.26 2308.08-3.93 2.27.59.34-.59 1.02.59 1.02 3.34-1.93v-2.72" style="fill:#815e61;fill-opacity:1;fill-rule:nonzero;stroke:none" transform="matrix(.13333 0 0 -.13333 0 392.16)"/><path d="m4420.33 2310.35-.59.34.59 1.02.59-1.02-.59-.34" style="fill:#815e61;fill-opacity:1;fill-rule:nonzero;stroke:none" transform="matrix(.13333 0 0 -.13333 0 392.16)"/><path d="m4817.12 1927.15.02 4.56-4.15 2.15 127.29 73.45 2.99-2.02-.98-5.91-125.17-72.23M4812.1 1472.1l-1.27.73 4.31 2.06.02 4.53 2.4-1.38-.95-3.18-4.51-2.76M4421.06 1254.58l-4.67 4.09v31.02l3.94-3.31 3.93 1.88v-32.03l-3.2-1.65M4128.76 1529.92l-2.03 2.06.14.99 2.92-2.46-1.03-.59" style="fill:#866365;fill-opacity:1;fill-rule:nonzero;stroke:none" transform="matrix(.13333 0 0 -.13333 0 392.16)"/><path d="m4903.39 1766.06 38.9 233.32.98 5.91-2.99 2.02-31.18 20.99-28.33 19.08-456.51 307.38-2.63 1.77-5.24-7.58-43.9-63.48-3.13-4.53-11.61-16.78 22.21 49.69 36.25 52.43.18.25 2.63 3.81 5.24-3.53 525.66-353.94 4.28-2.88-.69-4.14-4.33-25.92-2.36-14.17-20.42-122.47-23.01-77.23" style="fill:#636f69;fill-opacity:1;fill-rule:nonzero;stroke:none" transform="matrix(.13333 0 0 -.13333 0 392.16)"/><path d="m4419.59 1242.57-3.2 2.81-53.1 46.53-95.9 97.32 9.66-8.47 9.12-7.98 130.22-114.11 4.67-4.09 3.2 1.65 220.29 113.51-117.62-71.86-102.67-52.9-4.67-2.41" style="fill:#784047;fill-opacity:1;fill-rule:nonzero;stroke:none" transform="matrix(.13333 0 0 -.13333 0 392.16)"/><path d="m4420.33 2416.45-2.82-4.13 563.87-384.55-164.77-552.91-395.51-241.63-294.37 298.75 44.9 315.65 253.26 566.78-4.56 2.04-2.82-4.13 2.82 4.13-4.57 2.04-253.83-568.06-45.8-321.94 303.42-307.93 405.55 247.76 167.95 563.6-574.85 392.03-2.44-5.46 4.57-2.04" style="fill:#f14c5d;fill-opacity:1;fill-rule:nonzero;stroke:none" transform="matrix(.13333 0 0 -.13333 0 392.16)"/><path d="m4133.67 1651.77 6.47 108.22 10.75 93.67 10.63-6.14-27.85-195.75m30.37 203.39-11.73 6.77 2.44 7.64 28.59 28.78-19.3-43.19" style="fill:#94b25b;fill-opacity:1;fill-rule:nonzero;stroke:none" transform="matrix(.13333 0 0 -.13333 0 392.16)"/><path d="m4161.52 1847.52-10.63 6.14.68 5.93.74 2.34 11.73-6.77-2.11-4.73-.41-2.91" style="fill:#7f9d4c;fill-opacity:1;fill-rule:nonzero;stroke:none" transform="matrix(.13333 0 0 -.13333 0 392.16)"/><path d="m4140.14 1759.99 6.03 100.94 8.58 8.64-2.44-7.64-.74-2.34-.68-5.93-10.75-93.67" style="fill:#6f712d;fill-opacity:1;fill-rule:nonzero;stroke:none" transform="matrix(.13333 0 0 -.13333 0 392.16)"/><path d="M4424.26 1288.26v9.37l345.09 199.13 41.48-23.93-386.57-184.57m0 12.1v200.27l169.2 97.64 173.53-100.14-342.73-197.77m0 203v192.54l166.84-96.27-166.84-96.27" style="fill:#b99848;fill-opacity:1;fill-rule:nonzero;stroke:none" transform="matrix(.13333 0 0 -.13333 0 392.16)"/><path d="M4424.26 1500.63v2.73l166.84 96.27 2.36-1.36-169.2-97.64M4424.26 1297.63v2.73l342.73 197.77 2.36-1.37-345.09-199.13" style="fill:#b08e42;fill-opacity:1;fill-rule:nonzero;stroke:none" transform="matrix(.13333 0 0 -.13333 0 392.16)"/><path d="m4416.39 1289.69-30.17 25.35 30.17-17.41v-7.94m0 10.67-40.53 23.39-246.07 206.76 117.41 67.75 169.19-97.63v-200.27m0 203-166.83 96.27 166.83 96.27v-192.54" style="fill:#b99848;fill-opacity:1;fill-rule:nonzero;stroke:none" transform="matrix(.13333 0 0 -.13333 0 392.16)"/><path d="m4416.39 1500.63-169.19 97.63 2.36 1.37 166.83-96.27v-2.73M4416.39 1297.63l-30.17 17.41-10.36 8.71 40.53-23.39v-2.73" style="fill:#b08e42;fill-opacity:1;fill-rule:nonzero;stroke:none" transform="matrix(.13333 0 0 -.13333 0 392.16)"/><path d="m4815.16 1479.42-41.87 24.16v398.28l43.83 25.29-1.96-447.73m-44.23 25.52-173.53 100.14v195.27l173.53 100.15v-395.56m-175.9 101.51-166.83 96.27 166.83 96.27v-192.54" style="fill:#b99848;fill-opacity:1;fill-rule:nonzero;stroke:none" transform="matrix(.13333 0 0 -.13333 0 392.16)"/><path d="m4597.4 1605.08-2.37 1.37v192.54l2.37 1.36v-195.27M4773.29 1503.58l-2.36 1.36v395.56l2.36 1.36v-398.28" style="fill:#b08e42;fill-opacity:1;fill-rule:nonzero;stroke:none" transform="matrix(.13333 0 0 -.13333 0 392.16)"/><path d="m4127.64 1538.36 43.21 303.78 72.41-41.79v-195.27l-115.62-66.72m117.98 68.08v192.55l166.83-96.27-166.83-96.28" style="fill:#b99848;fill-opacity:1;fill-rule:nonzero;stroke:none" transform="matrix(.13333 0 0 -.13333 0 392.16)"/><path d="M4243.26 1605.08v195.27l2.36-1.36v-192.55l-2.36-1.36" style="fill:#b08e42;fill-opacity:1;fill-rule:nonzero;stroke:none" transform="matrix(.13333 0 0 -.13333 0 392.16)"/><path d="M4424.26 1709.54v192.54l166.84-96.27-166.84-96.27m169.2 97.63-169.2 97.64v200.27l342.73-197.77-173.53-100.14m175.89 101.5-345.09 199.13v27.07l388.73-201.01-43.64-25.19" style="fill:#b99848;fill-opacity:1;fill-rule:nonzero;stroke:none" transform="matrix(.13333 0 0 -.13333 0 392.16)"/><path d="m4591.1 1805.81-166.84 96.27v2.73l169.2-97.64-2.36-1.36M4766.99 1907.31l-342.73 197.77v2.72l345.09-199.13-2.36-1.36" style="fill:#ad8c40;fill-opacity:1;fill-rule:nonzero;stroke:none" transform="matrix(.13333 0 0 -.13333 0 392.16)"/><path d="m4416.39 1709.54-166.83 96.27 166.83 96.27v-192.54m-169.19 97.63-74.45 42.96 30.5 68.26 148.28 149.26 64.86 37.43v-200.27l-169.19-97.64m110.68 266.87 58.51 58.9v-25.14l-58.51-33.76" style="fill:#b99848;fill-opacity:1;fill-rule:nonzero;stroke:none" transform="matrix(.13333 0 0 -.13333 0 392.16)"/><path d="m4249.56 1805.81-2.36 1.36 169.19 97.64v-2.73l-166.83-96.27M4351.53 2067.65l6.35 6.39 58.51 33.76v-2.72l-64.86-37.43" style="fill:#b08e42;fill-opacity:1;fill-rule:nonzero;stroke:none" transform="matrix(.13333 0 0 -.13333 0 392.16)"/><path d="m4420.33 1707.26-3.94 2.28v192.54l3.94 2.27 3.93-2.27v-192.54l-3.93-2.28m3.93 197.55-3.34 1.93-.59-1.02-.59 1.02-3.35-1.93v200.27l3.94 2.27 3.93-2.27v-200.27m-7.87 202.99v25.14l3.94 3.96 3.93-2.03v-27.07l-3.34 1.94-.59-1.03-.59 1.03-3.35-1.94" style="fill:#ac8a40;fill-opacity:1;fill-rule:nonzero;stroke:none" transform="matrix(.13333 0 0 -.13333 0 392.16)"/><path d="M4416.39 1902.08v2.73l3.35 1.93.59-1.02-.59-1.03.59-.34-3.94-2.27" style="fill:#aa8a3e;fill-opacity:1;fill-rule:nonzero;stroke:none" transform="matrix(.13333 0 0 -.13333 0 392.16)"/><path d="m4424.26 1902.08-3.93 2.27.59.34-.59 1.03.59 1.02 3.34-1.93v-2.73" style="fill:#a9883d;fill-opacity:1;fill-rule:nonzero;stroke:none" transform="matrix(.13333 0 0 -.13333 0 392.16)"/><path d="m4420.33 1904.35-.59.34.59 1.03.59-1.03-.59-.34" style="fill:#a9883d;fill-opacity:1;fill-rule:nonzero;stroke:none" transform="matrix(.13333 0 0 -.13333 0 392.16)"/><path d="M4416.39 2105.08v2.72l3.35 1.94.59-1.03-.59-1.02.59-.34-3.94-2.27" style="fill:#aa8a3e;fill-opacity:1;fill-rule:nonzero;stroke:none" transform="matrix(.13333 0 0 -.13333 0 392.16)"/><path d="m4424.26 2105.08-3.93 2.27.59.34-.59 1.02.59 1.03 3.34-1.94v-2.72" style="fill:#a9883d;fill-opacity:1;fill-rule:nonzero;stroke:none" transform="matrix(.13333 0 0 -.13333 0 392.16)"/><path d="m4420.33 2107.35-.59.34.59 1.02.59-1.02-.59-.34" style="fill:#a9883d;fill-opacity:1;fill-rule:nonzero;stroke:none" transform="matrix(.13333 0 0 -.13333 0 392.16)"/><path d="m4428.2 1702.72-5.91 3.41-1.96 1.13 3.93 2.28 166.84 96.27 3.93-2.27v-4.55l-166.83-96.27m169.2 97.63v3.87h-1.18l.59 1.02-3.35 1.93 173.53 100.14 3.94-2.28v-4.53l-173.53-100.15m175.89 101.51v3.86h-1.18l.59 1.02-3.35 1.93 43.64 25.19 4.15-2.15-.02-4.56-43.83-25.29" style="fill:#ac8a40;fill-opacity:1;fill-rule:nonzero;stroke:none" transform="matrix(.13333 0 0 -.13333 0 392.16)"/><path d="M4595.03 1798.99v4.55l.6-.34.59 1.02h1.18v-3.87l-2.37-1.36" style="fill:#aa8a3e;fill-opacity:1;fill-rule:nonzero;stroke:none" transform="matrix(.13333 0 0 -.13333 0 392.16)"/><path d="m4595.03 1803.54-3.93 2.27 2.36 1.36 3.35-1.93-.59-1.02h-1.19v-.68" style="fill:#a9883d;fill-opacity:1;fill-rule:nonzero;stroke:none" transform="matrix(.13333 0 0 -.13333 0 392.16)"/><path d="m4595.63 1803.2-.6.34v.68h1.19l-.59-1.02" style="fill:#a9883d;fill-opacity:1;fill-rule:nonzero;stroke:none" transform="matrix(.13333 0 0 -.13333 0 392.16)"/><path d="M4770.93 1900.5v4.53l.59-.34.59 1.03h1.18v-3.86l-2.36-1.36" style="fill:#aa8a3e;fill-opacity:1;fill-rule:nonzero;stroke:none" transform="matrix(.13333 0 0 -.13333 0 392.16)"/><path d="m4770.93 1905.03-3.94 2.28 2.36 1.36 3.35-1.93-.59-1.02h-1.18v-.69" style="fill:#a9883d;fill-opacity:1;fill-rule:nonzero;stroke:none" transform="matrix(.13333 0 0 -.13333 0 392.16)"/><path d="m4771.52 1904.69-.59.34v.69h1.18l-.59-1.03" style="fill:#a9883d;fill-opacity:1;fill-rule:nonzero;stroke:none" transform="matrix(.13333 0 0 -.13333 0 392.16)"/><path d="m4810.83 1472.83-41.48 23.93 3.35 1.94-.59 1.02h1.18v3.86l41.87-24.16-.02-4.53-4.31-2.06m-43.84 25.3-173.53 100.14 3.35 1.93-.59 1.02h1.18v3.86l173.53-100.14v-4.54l-3.94-2.27m-175.89 101.5-166.84 96.27v6.82h-3.93l1.96 3.41 5.91-3.41 166.83-96.27v-4.55l-3.93-2.27" style="fill:#ac8a40;fill-opacity:1;fill-rule:nonzero;stroke:none" transform="matrix(.13333 0 0 -.13333 0 392.16)"/><path d="M4597.4 1601.22h-1.18l-.59 1.02-.6-.34v4.55l2.37-1.37v-3.86" style="fill:#aa8a3e;fill-opacity:1;fill-rule:nonzero;stroke:none" transform="matrix(.13333 0 0 -.13333 0 392.16)"/><path d="m4593.46 1598.27-2.36 1.36 3.93 2.27v-.68h1.19l.59-1.02-3.35-1.93" style="fill:#aa8a3e;fill-opacity:1;fill-rule:nonzero;stroke:none" transform="matrix(.13333 0 0 -.13333 0 392.16)"/><path d="M4596.22 1601.22h-1.19v.68l.6.34.59-1.02" style="fill:#a9883d;fill-opacity:1;fill-rule:nonzero;stroke:none" transform="matrix(.13333 0 0 -.13333 0 392.16)"/><path d="M4773.29 1499.72h-1.18l-.59 1.02-.59-.34v4.54l2.36-1.36v-3.86" style="fill:#aa8a3e;fill-opacity:1;fill-rule:nonzero;stroke:none" transform="matrix(.13333 0 0 -.13333 0 392.16)"/><path d="m4769.35 1496.76-2.36 1.37 3.94 2.27v-.68h1.18l.59-1.02-3.35-1.94" style="fill:#aa8a3e;fill-opacity:1;fill-rule:nonzero;stroke:none" transform="matrix(.13333 0 0 -.13333 0 392.16)"/><path d="M4772.11 1499.72h-1.18v.68l.59.34.59-1.02" style="fill:#a9883d;fill-opacity:1;fill-rule:nonzero;stroke:none" transform="matrix(.13333 0 0 -.13333 0 392.16)"/><path d="m4420.33 1286.38-3.94 3.31v7.94l3.35-1.93.59 1.02.59-1.02 3.34 1.93v-9.37l-3.93-1.88m0 11.71-3.94 2.27v200.27l3.35-1.93.59 1.02.59-1.02 3.34 1.93v-200.27l-3.93-2.27m0 202.99-3.94 2.28v192.54l5.9 3.41-1.96 3.41h3.93V1503.36l-3.93-2.28" style="fill:#ac8a40;fill-opacity:1;fill-rule:nonzero;stroke:none" transform="matrix(.13333 0 0 -.13333 0 392.16)"/><path d="m4420.92 1498.7-.59 1.02.59 1.02-.59.34 3.93 2.28v-2.73l-3.34-1.93M4419.74 1498.7l-3.35 1.93v2.73l3.94-2.28-.59-.34.59-1.02-.59-1.02" style="fill:#aa8a3e;fill-opacity:1;fill-rule:nonzero;stroke:none" transform="matrix(.13333 0 0 -.13333 0 392.16)"/><path d="m4420.33 1499.72-.59 1.02.59.34.59-.34-.59-1.02" style="fill:#a9883d;fill-opacity:1;fill-rule:nonzero;stroke:none" transform="matrix(.13333 0 0 -.13333 0 392.16)"/><path d="m4420.92 1295.7-.59 1.02.59 1.03-.59.34 3.93 2.27v-2.73l-3.34-1.93M4419.74 1295.7l-3.35 1.93v2.73l3.94-2.27-.59-.34.59-1.03-.59-1.02" style="fill:#aa8a3e;fill-opacity:1;fill-rule:nonzero;stroke:none" transform="matrix(.13333 0 0 -.13333 0 392.16)"/><path d="m4420.33 1296.72-.59 1.03.59.34.59-.34-.59-1.03" style="fill:#a9883d;fill-opacity:1;fill-rule:nonzero;stroke:none" transform="matrix(.13333 0 0 -.13333 0 392.16)"/><path d="m4129.79 1530.51-2.92 2.46.77 5.39 115.62 66.72v-3.86h1.18l-.59-1.02 3.35-1.94-117.41-67.75m119.77 69.12-3.94 2.27v4.54l166.83 96.28 5.91-3.41 1.97 3.41 1.96-3.41-5.9-3.41-166.83-96.27" style="fill:#ac8a40;fill-opacity:1;fill-rule:nonzero;stroke:none" transform="matrix(.13333 0 0 -.13333 0 392.16)"/><path d="m4247.2 1598.26-3.35 1.94.59 1.02h1.18v.68l3.94-2.27-2.36-1.37M4244.44 1601.22h-1.18v3.86l2.36 1.36v-4.54l-.59.34-.59-1.02" style="fill:#aa8a3e;fill-opacity:1;fill-rule:nonzero;stroke:none" transform="matrix(.13333 0 0 -.13333 0 392.16)"/><path d="M4245.62 1601.22h-1.18l.59 1.02.59-.34v-.68" style="fill:#a9883d;fill-opacity:1;fill-rule:nonzero;stroke:none" transform="matrix(.13333 0 0 -.13333 0 392.16)"/><path d="m4418.36 1699.31-5.91 3.41-166.83 96.27v4.55l3.94 2.27 166.83-96.27 3.94-2.28 1.96-1.13-1.96-3.41-1.97-3.41m-175.1 101.04-72.41 41.79.78 5.49 1.12 2.5 74.45-42.96-3.35-1.93.59-1.02h-1.18v-3.87" style="fill:#ac8a40;fill-opacity:1;fill-rule:nonzero;stroke:none" transform="matrix(.13333 0 0 -.13333 0 392.16)"/><path d="m4245.62 1798.99-2.36 1.36v3.87h1.18l.59-1.02.59.34v-4.55" style="fill:#aa8a3e;fill-opacity:1;fill-rule:nonzero;stroke:none" transform="matrix(.13333 0 0 -.13333 0 392.16)"/><path d="M4245.62 1803.54v.68h-1.18l-.59 1.02 3.35 1.93 2.36-1.36-3.94-2.27" style="fill:#aa8a3e;fill-opacity:1;fill-rule:nonzero;stroke:none" transform="matrix(.13333 0 0 -.13333 0 392.16)"/><path d="m4245.03 1803.2-.59 1.02h1.18v-.68l-.59-.34" style="fill:#a9883d;fill-opacity:1;fill-rule:nonzero;stroke:none" transform="matrix(.13333 0 0 -.13333 0 392.16)"/><path d="m4126.87 1532.97-.28.24 7.08 118.56 27.85 195.75.41 2.91 2.11 4.73 19.3 43.19 19.91 20.04-30.5-68.26-1.12-2.5-.78-5.49-43.21-303.78-.77-5.39" style="fill:#f57939;fill-opacity:1;fill-rule:nonzero;stroke:none" transform="matrix(.13333 0 0 -.13333 0 392.16)"/><path d="m4418.4 2149.15-5.16-5.2-274.16-275.97-2.67-2.68-.22-3.77-19.58-327.73-.31-5.01 3.85-3.24 293.75-246.83 4.93-4.15 5.81 2.78 394.81 188.51 5.66 2.71.03 6.28 2 456.81.03 6.12-5.43 2.81-396.81 205.2zm1.93-12.25 396.81-205.19-2-456.82-394.81-188.51-293.74 246.83 19.58 327.72 274.16 275.97" style="fill:#eac41a;fill-opacity:1;fill-rule:nonzero;stroke:none" transform="matrix(.13333 0 0 -.13333 0 392.16)"/><path d="M4443.96 2363.44c0-3.14-.61-6.15-1.81-9.04-1.19-2.89-2.9-5.45-5.11-7.66a23.172 23.172 0 0 0-7.67-5.11 23.2 23.2 0 0 0-9.04-1.81c-3.13 0-6.15.6-9.04 1.81a23.03 23.03 0 0 0-7.66 5.11 23.34 23.34 0 0 0-5.13 7.66 23.52 23.52 0 0 0-1.8 9.04c0 3.13.61 6.15 1.8 9.03 1.2 2.9 2.91 5.45 5.13 7.67 2.21 2.21 4.76 3.91 7.66 5.11 2.89 1.2 5.91 1.8 9.04 1.8 3.13 0 6.15-.6 9.04-1.8 2.9-1.2 5.45-2.9 7.67-5.11 2.21-2.22 3.92-4.77 5.11-7.67 1.2-2.88 1.81-5.9 1.81-9.03M4972.36 2007.64c0-3.13-.6-6.14-1.8-9.03-1.2-2.9-2.9-5.45-5.12-7.66a23.34 23.34 0 0 0-7.66-5.13c-2.9-1.19-5.91-1.79-9.04-1.79-3.14 0-6.15.6-9.05 1.79a23.34 23.34 0 0 0-7.66 5.13 23.364 23.364 0 0 0-5.12 7.66c-1.2 2.89-1.8 5.9-1.8 9.03 0 3.13.6 6.14 1.8 9.04 1.2 2.89 2.91 5.44 5.12 7.66 2.21 2.21 4.77 3.92 7.66 5.12 2.9 1.2 5.91 1.79 9.05 1.79 3.13 0 6.14-.59 9.04-1.79 2.89-1.2 5.45-2.91 7.66-5.12 2.22-2.22 3.92-4.77 5.12-7.66 1.2-2.9 1.8-5.91 1.8-9.04M4879.61 1451.32c0-3.13-.6-6.15-1.8-9.04-1.19-2.89-2.9-5.45-5.12-7.66a23.51 23.51 0 0 0-7.67-5.12c-2.89-1.2-5.9-1.8-9.04-1.8-3.12 0-6.14.6-9.03 1.8a23.51 23.51 0 0 0-7.67 5.12 23.469 23.469 0 0 0-5.12 7.66c-1.2 2.89-1.8 5.91-1.8 9.04 0 3.13.6 6.14 1.8 9.04 1.2 2.89 2.91 5.44 5.12 7.66 2.22 2.21 4.77 3.91 7.67 5.11 2.89 1.2 5.91 1.8 9.03 1.8 3.14 0 6.15-.6 9.04-1.8 2.9-1.2 5.45-2.9 7.67-5.11 2.22-2.22 3.93-4.77 5.12-7.66 1.2-2.9 1.8-5.91 1.8-9.04M4443.96 1201.28c0-3.12-.61-6.14-1.81-9.03-1.19-2.89-2.9-5.45-5.11-7.66a23.326 23.326 0 0 0-7.67-5.11 23.2 23.2 0 0 0-9.04-1.81c-3.13 0-6.15.6-9.04 1.81-2.9 1.19-5.45 2.9-7.66 5.11a23.34 23.34 0 0 0-5.13 7.66c-1.19 2.89-1.8 5.91-1.8 9.03 0 3.14.61 6.16 1.8 9.05 1.2 2.89 2.91 5.44 5.13 7.65 2.21 2.22 4.76 3.93 7.66 5.12 2.89 1.2 5.91 1.8 9.04 1.8 3.13 0 6.15-.6 9.04-1.8a23.2 23.2 0 0 0 7.67-5.12c2.21-2.21 3.92-4.76 5.11-7.65 1.2-2.89 1.81-5.91 1.81-9.05M4101.8 1505.27c0-3.13-.59-6.14-1.8-9.03-1.2-2.9-2.91-5.45-5.11-7.66a23.458 23.458 0 0 0-7.67-5.12c-2.9-1.2-5.91-1.8-9.04-1.8-3.14 0-6.14.6-9.04 1.8-2.89 1.2-5.45 2.9-7.67 5.12a23.364 23.364 0 0 0-5.12 7.66c-1.2 2.89-1.79 5.9-1.79 9.03 0 3.14.59 6.15 1.79 9.04a23.616 23.616 0 0 0 12.79 12.78c2.9 1.2 5.9 1.8 9.04 1.8 3.13 0 6.14-.6 9.04-1.8 2.89-1.2 5.45-2.91 7.67-5.12 2.2-2.22 3.91-4.77 5.11-7.66 1.21-2.89 1.8-5.9 1.8-9.04M4117.38 1891.18c0-3.13-.61-6.15-1.8-9.04a23.34 23.34 0 0 0-5.13-7.66 23.21 23.21 0 0 0-7.66-5.12c-2.89-1.2-5.91-1.8-9.04-1.8-3.13 0-6.15.6-9.04 1.8-2.9 1.2-5.45 2.9-7.66 5.12a23.159 23.159 0 0 0-5.12 7.66c-1.2 2.89-1.81 5.91-1.81 9.04 0 3.13.61 6.14 1.81 9.03 1.19 2.89 2.9 5.45 5.12 7.66 2.21 2.22 4.76 3.93 7.66 5.12 2.89 1.2 5.91 1.8 9.04 1.8 3.13 0 6.15-.6 9.04-1.8 2.9-1.19 5.45-2.9 7.66-5.12a23.34 23.34 0 0 0 5.13-7.66c1.19-2.89 1.8-5.9 1.8-9.03" style="fill:#45c0a6;fill-opacity:1;fill-rule:nonzero;stroke:none" transform="matrix(.13333 0 0 -.13333 0 392.16)"/><path d="M4443.96 2717.71c0-3.13-.61-6.14-1.81-9.03-1.19-2.9-2.9-5.45-5.11-7.66a23.2 23.2 0 0 0-7.67-5.12c-2.89-1.2-5.91-1.8-9.04-1.8-3.13 0-6.15.6-9.04 1.8-2.9 1.19-5.45 2.9-7.66 5.12a23.237 23.237 0 0 0-5.13 7.66c-1.19 2.89-1.8 5.9-1.8 9.03 0 3.13.61 6.15 1.8 9.04a23.34 23.34 0 0 0 5.13 7.66 23.03 23.03 0 0 0 7.66 5.11 23.2 23.2 0 0 0 9.04 1.81c3.13 0 6.15-.6 9.04-1.81 2.9-1.19 5.45-2.89 7.67-5.11 2.21-2.21 3.92-4.77 5.11-7.66 1.2-2.89 1.81-5.91 1.81-9.04M5220.87 2151.05c0-3.13-.59-6.14-1.79-9.03-1.2-2.9-2.9-5.45-5.12-7.66a23.303 23.303 0 0 0-7.67-5.12c-2.9-1.2-5.9-1.81-9.04-1.81-3.13 0-6.14.61-9.04 1.81-2.89 1.19-5.45 2.9-7.67 5.12a23.52 23.52 0 0 0-5.12 7.66c-1.2 2.89-1.79 5.9-1.79 9.03 0 3.13.59 6.15 1.79 9.04 1.21 2.89 2.91 5.45 5.12 7.66a23.43 23.43 0 0 0 7.67 5.11c2.9 1.21 5.91 1.8 9.04 1.8 3.14 0 6.14-.59 9.04-1.8a23.43 23.43 0 0 0 7.67-5.11c2.22-2.21 3.92-4.77 5.12-7.66 1.2-2.89 1.79-5.91 1.79-9.04M4859.7 1462.81c0-3.13-.59-6.15-1.79-9.04-1.21-2.89-2.91-5.45-5.13-7.66a23.469 23.469 0 0 0-7.66-5.12c-2.9-1.2-5.91-1.8-9.04-1.8-3.14 0-6.15.6-9.04 1.8-2.89 1.2-5.45 2.91-7.67 5.12a23.159 23.159 0 0 0-5.12 7.66c-1.2 2.89-1.79 5.91-1.79 9.04 0 3.13.59 6.14 1.79 9.03 1.19 2.89 2.9 5.45 5.12 7.66 2.22 2.22 4.78 3.92 7.67 5.12 2.89 1.2 5.9 1.8 9.04 1.8 3.13 0 6.14-.6 9.04-1.8 2.89-1.2 5.45-2.9 7.66-5.12 2.22-2.21 3.92-4.77 5.13-7.66 1.2-2.89 1.79-5.9 1.79-9.03M4443.96 1248.58c0-3.14-.61-6.14-1.81-9.05-1.19-2.89-2.9-5.43-5.11-7.65a23.354 23.354 0 0 0-7.67-5.12c-2.89-1.2-5.91-1.8-9.04-1.8-3.13 0-6.15.6-9.04 1.8-2.9 1.2-5.45 2.9-7.66 5.12a23.403 23.403 0 0 0-5.13 7.65c-1.19 2.91-1.8 5.91-1.8 9.05 0 3.12.61 6.14 1.8 9.03 1.2 2.89 2.91 5.45 5.13 7.67 2.21 2.2 4.76 3.91 7.66 5.11 2.89 1.2 5.91 1.8 9.04 1.8 3.13 0 6.15-.6 9.04-1.8 2.9-1.2 5.45-2.91 7.67-5.11a23.43 23.43 0 0 0 5.11-7.67c1.2-2.89 1.81-5.91 1.81-9.03M4131.46 1522.39c0-3.13-.6-6.15-1.8-9.04-1.2-2.89-2.91-5.45-5.12-7.66a23.469 23.469 0 0 0-7.66-5.12c-2.9-1.2-5.91-1.8-9.04-1.8-3.14 0-6.16.6-9.05 1.8-2.89 1.2-5.45 2.91-7.66 5.12a23.159 23.159 0 0 0-5.12 7.66c-1.2 2.89-1.8 5.91-1.8 9.04 0 3.13.6 6.14 1.8 9.03 1.19 2.89 2.9 5.45 5.12 7.67 2.21 2.21 4.77 3.92 7.66 5.11 2.89 1.2 5.91 1.8 9.05 1.8 3.13 0 6.14-.6 9.04-1.8 2.89-1.19 5.45-2.9 7.66-5.11 2.21-2.22 3.92-4.78 5.12-7.67 1.2-2.89 1.8-5.9 1.8-9.03M4170.28 1860.65c0-3.14-.6-6.14-1.8-9.04-1.2-2.89-2.91-5.44-5.12-7.66a23.469 23.469 0 0 0-7.66-5.12c-2.9-1.2-5.91-1.8-9.04-1.8-3.14 0-6.15.6-9.05 1.8-2.89 1.2-5.45 2.91-7.66 5.12a23.417 23.417 0 0 0-5.12 7.66c-1.2 2.9-1.8 5.9-1.8 9.04 0 3.13.6 6.14 1.8 9.03 1.2 2.9 2.9 5.45 5.12 7.66 2.21 2.22 4.77 3.92 7.66 5.12 2.9 1.2 5.91 1.8 9.05 1.8 3.13 0 6.14-.6 9.04-1.8 2.89-1.2 5.45-2.9 7.66-5.12 2.21-2.21 3.92-4.76 5.12-7.66 1.2-2.89 1.8-5.9 1.8-9.03" style="fill:#2d3c40;fill-opacity:1;fill-rule:nonzero;stroke:none" transform="matrix(.13333 0 0 -.13333 0 392.16)"/><path d="M4443.96 2416.45c0-3.14-.61-6.15-1.81-9.04-1.19-2.89-2.9-5.45-5.11-7.66a23.51 23.51 0 0 0-7.67-5.12c-2.89-1.2-5.91-1.79-9.04-1.79-3.13 0-6.15.59-9.04 1.79-2.9 1.2-5.45 2.91-7.66 5.12a23.34 23.34 0 0 0-5.13 7.66 23.52 23.52 0 0 0-1.8 9.04c0 3.13.61 6.14 1.8 9.03 1.2 2.9 2.91 5.45 5.13 7.66 2.21 2.22 4.76 3.92 7.66 5.13 2.89 1.19 5.91 1.79 9.04 1.79a23.547 23.547 0 0 0 16.71-6.92c2.21-2.21 3.92-4.76 5.11-7.66 1.2-2.89 1.81-5.9 1.81-9.03M5010.83 2029.84c0-3.13-.59-6.14-1.79-9.03-1.2-2.9-2.91-5.45-5.13-7.66a23.21 23.21 0 0 0-7.66-5.12c-2.9-1.2-5.9-1.8-9.04-1.8-3.13 0-6.15.6-9.04 1.8-2.89 1.2-5.45 2.9-7.67 5.12a23.336 23.336 0 0 0-5.11 7.66 23.14 23.14 0 0 0-1.8 9.03c0 3.14.59 6.14 1.8 9.04a23.546 23.546 0 0 0 12.78 12.78c2.89 1.2 5.91 1.8 9.04 1.8 3.14 0 6.14-.6 9.04-1.8 2.9-1.2 5.45-2.91 7.66-5.12 2.22-2.22 3.93-4.77 5.13-7.66 1.2-2.9 1.79-5.9 1.79-9.04M4844.48 1471.59c0-3.13-.6-6.15-1.8-9.04-1.19-2.89-2.9-5.44-5.12-7.66a23.469 23.469 0 0 0-7.66-5.12c-2.89-1.2-5.91-1.79-9.05-1.79-3.13 0-6.14.59-9.04 1.79-2.89 1.2-5.45 2.91-7.65 5.12a23.445 23.445 0 0 0-5.13 7.66c-1.2 2.89-1.8 5.91-1.8 9.04 0 3.13.6 6.14 1.8 9.03 1.2 2.9 2.91 5.45 5.13 7.66 2.2 2.22 4.76 3.93 7.65 5.13 2.9 1.19 5.91 1.79 9.04 1.79 3.14 0 6.16-.6 9.05-1.79a23.34 23.34 0 0 0 7.66-5.13c2.22-2.21 3.93-4.76 5.12-7.66 1.2-2.89 1.8-5.9 1.8-9.03M4443.96 1226.9c0-3.14-.61-6.14-1.81-9.04-1.19-2.9-2.9-5.44-5.11-7.66a23.51 23.51 0 0 0-7.67-5.12c-2.89-1.2-5.91-1.8-9.04-1.8-3.13 0-6.15.6-9.04 1.8-2.9 1.2-5.45 2.91-7.66 5.12a23.34 23.34 0 0 0-5.13 7.66c-1.19 2.9-1.8 5.9-1.8 9.04 0 3.13.61 6.14 1.8 9.03 1.2 2.9 2.91 5.45 5.13 7.67 2.21 2.21 4.76 3.91 7.66 5.11a23.19 23.19 0 0 0 9.04 1.8c3.13 0 6.15-.59 9.04-1.8 2.9-1.2 5.45-2.9 7.67-5.11 2.21-2.22 3.92-4.77 5.11-7.67 1.2-2.89 1.81-5.9 1.81-9.03M4145.05 1530.23c0-3.13-.59-6.14-1.79-9.04-1.2-2.89-2.91-5.44-5.12-7.66a23.588 23.588 0 0 0-7.67-5.11c-2.9-1.2-5.9-1.8-9.04-1.8-3.13 0-6.14.6-9.04 1.8-2.89 1.2-5.45 2.9-7.67 5.11a23.734 23.734 0 0 0-5.12 7.66c-1.2 2.9-1.79 5.91-1.79 9.04 0 3.13.59 6.15 1.79 9.04 1.21 2.89 2.91 5.45 5.12 7.66 2.22 2.21 4.78 3.92 7.67 5.12 2.9 1.2 5.91 1.8 9.04 1.8 3.14 0 6.14-.6 9.04-1.8a23.616 23.616 0 0 0 12.79-12.78c1.2-2.89 1.79-5.91 1.79-9.04M4190.41 1849.03c0-3.13-.6-6.14-1.8-9.04-1.2-2.89-2.91-5.44-5.12-7.65a23.417 23.417 0 0 0-7.66-5.12c-2.91-1.2-5.91-1.8-9.05-1.8-3.13 0-6.15.6-9.04 1.8-2.89 1.2-5.45 2.9-7.67 5.12a23.399 23.399 0 0 0-5.11 7.65c-1.21 2.9-1.8 5.91-1.8 9.04 0 3.13.59 6.14 1.8 9.04a23.546 23.546 0 0 0 12.78 12.78c2.89 1.19 5.91 1.8 9.04 1.8 3.14 0 6.14-.61 9.05-1.8 2.89-1.2 5.44-2.91 7.66-5.12 2.21-2.22 3.92-4.77 5.12-7.66 1.2-2.9 1.8-5.91 1.8-9.04" style="fill:#f14c5d;fill-opacity:1;fill-rule:nonzero;stroke:none" transform="matrix(.13333 0 0 -.13333 0 392.16)"/><path d="M4443.96 2136.9c0-3.13-.61-6.14-1.81-9.04-1.19-2.89-2.9-5.44-5.11-7.65a23.354 23.354 0 0 0-7.67-5.12c-2.89-1.2-5.91-1.8-9.04-1.8-3.13 0-6.15.6-9.04 1.8-2.9 1.2-5.45 2.9-7.66 5.12a23.299 23.299 0 0 0-5.13 7.65 23.594 23.594 0 0 0 0 18.08 23.34 23.34 0 0 0 5.13 7.66c2.21 2.21 4.76 3.92 7.66 5.12 2.89 1.2 5.91 1.8 9.04 1.8 3.13 0 6.15-.6 9.04-1.8 2.9-1.2 5.45-2.91 7.67-5.12 2.21-2.21 3.92-4.77 5.11-7.66 1.2-2.89 1.81-5.91 1.81-9.04M4840.78 1931.71c0-3.14-.61-6.15-1.81-9.04-1.19-2.89-2.9-5.44-5.12-7.66a23.364 23.364 0 0 0-7.66-5.12c-2.89-1.2-5.91-1.8-9.05-1.8-3.12 0-6.14.6-9.03 1.8a23.51 23.51 0 0 0-7.67 5.12 23.574 23.574 0 0 0-5.12 7.66 23.52 23.52 0 0 0-1.8 9.04c0 3.13.61 6.14 1.8 9.03 1.2 2.9 2.91 5.45 5.12 7.66 2.22 2.22 4.77 3.92 7.67 5.12 2.89 1.2 5.91 1.8 9.03 1.8 3.14 0 6.16-.6 9.05-1.8 2.9-1.2 5.45-2.9 7.66-5.12 2.22-2.21 3.93-4.76 5.12-7.66 1.2-2.89 1.81-5.9 1.81-9.03M4838.76 1474.89c0-3.13-.6-6.15-1.79-9.04-1.2-2.89-2.91-5.44-5.13-7.66a23.406 23.406 0 0 0-7.67-5.12c-2.89-1.2-5.9-1.79-9.03-1.79-3.13 0-6.15.59-9.04 1.79a23.51 23.51 0 0 0-7.67 5.12 23.574 23.574 0 0 0-5.12 7.66c-1.2 2.89-1.8 5.91-1.8 9.04 0 3.13.6 6.14 1.8 9.03 1.2 2.9 2.91 5.45 5.12 7.67a23.51 23.51 0 0 0 7.67 5.12c2.89 1.19 5.91 1.79 9.04 1.79 3.13 0 6.14-.6 9.03-1.79 2.91-1.2 5.45-2.91 7.67-5.12 2.22-2.22 3.93-4.77 5.13-7.67 1.19-2.89 1.79-5.9 1.79-9.03M4443.96 1286.38c0-3.13-.61-6.15-1.81-9.04-1.19-2.89-2.9-5.45-5.11-7.66a23.354 23.354 0 0 0-7.67-5.12c-2.89-1.2-5.91-1.79-9.04-1.79-3.13 0-6.15.59-9.04 1.79-2.9 1.2-5.45 2.9-7.66 5.12a23.34 23.34 0 0 0-5.13 7.66c-1.19 2.89-1.8 5.91-1.8 9.04 0 3.13.61 6.14 1.8 9.03a23.34 23.34 0 0 0 5.13 7.66c2.21 2.22 4.76 3.93 7.66 5.12 2.89 1.2 5.91 1.79 9.04 1.79 3.13 0 6.15-.59 9.04-1.79a23.2 23.2 0 0 0 7.67-5.12c2.21-2.21 3.92-4.77 5.11-7.66 1.2-2.89 1.81-5.9 1.81-9.03M4150.21 1533.21c0-3.13-.6-6.15-1.8-9.04-1.2-2.89-2.91-5.45-5.12-7.66a23.469 23.469 0 0 0-7.66-5.12c-2.9-1.2-5.91-1.8-9.04-1.8-3.14 0-6.16.6-9.05 1.8-2.89 1.2-5.45 2.91-7.66 5.12a23.159 23.159 0 0 0-5.12 7.66c-1.2 2.89-1.8 5.91-1.8 9.04 0 3.13.6 6.14 1.8 9.03a23.2 23.2 0 0 0 5.12 7.67c2.21 2.21 4.77 3.92 7.66 5.11 2.89 1.2 5.91 1.8 9.05 1.8 3.13 0 6.14-.6 9.04-1.8 2.89-1.19 5.45-2.9 7.66-5.11a23.51 23.51 0 0 0 5.12-7.67c1.2-2.89 1.8-5.9 1.8-9.03M4169.79 1860.93c0-3.13-.6-6.15-1.8-9.04a23.44 23.44 0 0 0-5.11-7.66 23.616 23.616 0 0 0-7.67-5.12c-2.9-1.2-5.91-1.8-9.04-1.8-3.14 0-6.15.6-9.05 1.8-2.89 1.2-5.45 2.91-7.66 5.12a23.469 23.469 0 0 0-5.12 7.66c-1.2 2.89-1.8 5.91-1.8 9.04 0 3.13.6 6.14 1.8 9.03 1.2 2.9 2.91 5.45 5.12 7.67 2.21 2.21 4.77 3.92 7.66 5.11 2.9 1.2 5.91 1.8 9.05 1.8 3.13 0 6.14-.6 9.04-1.8a23.43 23.43 0 0 0 7.67-5.11c2.21-2.22 3.91-4.77 5.11-7.67 1.2-2.89 1.8-5.9 1.8-9.03" style="fill:#eac41a;fill-opacity:1;fill-rule:nonzero;stroke:none" transform="matrix(.13333 0 0 -.13333 0 392.16)"/><text transform="matrix(1.33333 0 0 1.33154 416.701 87.532)" style="font-variant:normal;font-weight:400;font-size:9.01215px;font-family:'Times New Roman';-inkscape-font-specification:TimesNewRomanPSMT;writing-mode:lr-tb;fill:#040606;fill-opacity:1;fill-rule:nonzero;stroke:none"><tspan x="0 4.5060749 6.7591124 9.7601585 12.013196 18.0243 24.53261" y="0">1 - COV</tspan><tspan x="129.49959 137.51138 140.01677 144.01816 147.01921 151.52342 156.53564" y="-58.247">MicroF1</tspan><tspan x="231.12059 234.12164 238.62772 242.13344 244.63882 249.64957" y="0">InstF1</tspan><tspan x="-4.9997406 -1.9986947 2.5073805 6.0146937 8.5186062 15.026917 21.535227" y="116.828">InstAUC</tspan><tspan x="129.5006 137.51239 141.51378 145.51518 148.51622 153.02049 158.03271" y="180.817">MacroF1</tspan><tspan x="232.00078 237.84012 242.34619 246.85226 253.36055 259.86884" y="113.823">AvgAUC</tspan></text><text transform="matrix(1.33333 0 0 1.33333 64.603 324.865)" style="font-variant:normal;font-weight:700;font-size:14px;font-family:'Times New Roman';-inkscape-font-specification:TimesNewRomanPS-BoldMT;writing-mode:lr-tb;fill:#040606;fill-opacity:1;fill-rule:nonzero;stroke:none"><tspan x="0 7 10.5 308.44659 316.23273" y="0">a. b.</tspan></text></svg>